<svg xmlns="http://www.w3.org/2000/svg" id="svg-b3eb98f5-2a0a-447f-8ba8-d24d03beecf1" class="injected-svg" viewBox="0 0 540 508"><g xmlns="http://www.w3.org/2000/svg" id="shape-svg" fill="#a90202"><defs><style></style></defs><g id="Слой_2" data-name="Слой 2"><g id="Слой_1-2" data-name="Слой 1"><path d="M355.91 270.16a11.33 11.33 0 0 1-.41 1.36 8.39 8.39 0 0 0 .41-1.36zM354.29 267.59c0-.13.07-.29.11-.44s0-.28 0-.48z" class="tmp-cls-1" transform="matrix(.9 0 0 .9 101 93)"/><path d="M356.81 259.93c-.61 2.46-1.66 4.46-1.57 3.49-.35 1.82-.64 3-.84 3.73 0 1.23-.06 1.53.33 2.09a10.77 10.77 0 0 1-1.87 4.75c-.59.73-.77.57 0-1.41 0 0-.25.64-.67 1.52s-1 2-1.63 3.15c-1.25 2.21-2.64 4.28-2.64 4.28l1.82-2.38c.9-1.21 1.75-2.5 1.75-2.5-.09.94-1.49 3-3 4.87s-3 3.75-3.36 4.86l1.12-1.35c.65-.79 1.48-1.86 2.29-2.95 1.63-2.17 3.13-4.54 3.13-4.54l-.07.63c.63-1.2 1.54-2.89 2.4-4.5a25 25 0 0 0 1.9-4.89 2 2 0 0 1 .1.58 4.8 4.8 0 0 1-.1.8 13.83 13.83 0 0 0 .45-2.36c1.78-6.88-1.06-1.45 1.23-10.32a23.58 23.58 0 0 1-.77 2.45zM361.63 250.22l.09-4.5 2-7.06c-.31-.16.61-5.43-.52-2a29.07 29.07 0 0 1-.64 3.17c-.54-1 1.87-9.58.6-7.66-1.1 5.69-1.5 6.5-1.73 10.12a103.7 103.7 0 0 1-3.43 11.14c-.31 1.55.1 1.89-.34 3.85.1-.43.2-.83.33-1.32l1.19.11a40.57 40.57 0 0 1 1.2-5l-1 8.65c1.85-2.36 3.45-10.7 4.71-13.88-1.99 3.85.39-3.31-2.46 4.38zM7 180.79s-.06-.07-.13 0v1.92-.05c.13-.66.13-1.29.13-1.87zM19.1 125l-2.76 9c.11-1.3-1.33 3-1 1-.19.69-1.2 3.89-.73 3.09l.62-1.81c-.7 5 .48 2.24-1.33 10.25a33.79 33.79 0 0 0 2.85-9.53l.7-2.35 1.55-7.72zM214.6 364.25l.4-.31c-.49.16-2.39.31-.4.31zM372.89 192.05c-.08.42-.18.89-.25 1.27a9.43 9.43 0 0 0 .25-1.27zM101.81 26.5l1.76-1.38zM157.8 1.85a19.1 19.1 0 0 0-3.66.84l1.86-.46zM370.21 162v-.13c-.05-.2-.09-.36-.14-.58zM265.09 20.51c.47.32 1 .67 1.75 1.09a6 6 0 0 0-1.75-1.09zM153.47 2.86h.23l.44-.15zM80.18 37.88l-1 1a10.11 10.11 0 0 0 1-1zM31 104.38l-1.28 3.07a30.27 30.27 0 0 0 1.28-3.07zM77.91 42.91c-.11.16-.22.31-.29.43.38-.34.45-.48.29-.43zM366.39 212.26v-.2l-.12-.1zM366.59 220.43c-.15.93-.31 1.9-.47 2.85.22-1.05.38-2.08.47-2.85zM306.05 46.92c.63.64 2.1 2.14 1.23 1.67 1.46.88 1.77.31-1.23-1.67zM365.94 228.21c.77.59-1.09 6.73-1.54 9.52.67-1.95.31 1.12.75.59a45 45 0 0 1 1-5.32c.62-.95.09 2.54-.69 5.19 1.24-3.2-.34 4.34 1.13-.24 2.06-10.08 3.2-17.29 3.22-24.62a126.44 126.44 0 0 1-3.26 16.87l-.3-2.13c1.77-5.15 2-8.53 3-13.76 0 0-.66 2.92-1.31 5.84s-1.39 5.82-1.39 5.82c-1.78 5.34-1.13 1.65-.36-2.69a9.41 9.41 0 0 1-.66 2.25c.13.57-2.04 12.98.41 2.68zM365.39 210.17c.01-.1 0-.08 0 0zM45.53 74.65a.37.37 0 0 0-.18.1c-.22.5-.06.25.18-.1zM300.86 39l2.44 1.7a26.48 26.48 0 0 0-2.44-1.7zM336.94 83l-1.32-1.66-.33-.27a15.14 15.14 0 0 0 1.65 1.93zM201.88 10.16a10 10 0 0 0-2 .08 9.3 9.3 0 0 0 2-.08zM371.91 195.72v0z" class="tmp-cls-1" transform="matrix(.9 0 0 .9 101 93)"/><path d="M141.71 8.64h.01v-.01l-.01.01z" class="tmp-cls-1"/><path d="M373 178.28c-.35-4-.43-6.77 0-6.66-.17-1.79-.28-2.38-.42-3.25-.06-.42-.13-.91-.18-1.61V164.54a9.34 9.34 0 0 0-.1-1.62c-1.06-3-1 .32-2.64-6.63 0 0 .18 1.39.37 2.77l.24 2.81c.15.59.28 1.14.42 1.7a6.63 6.63 0 0 1 .16 1.16c0 .26.06.53.09.82v-.85a15.27 15.27 0 0 0-.27-2.42c-.21-1.45-.43-2.9-.43-2.9.78 3.68 1 2.84 1.71 4.08.08 2.09.14 3.8.2 5.27s.07 2.49.1 3.51c0 2.1 0 3.77.23 6-.89-2.63-1.45-6.94-1.89-5.22a15.24 15.24 0 0 0-.57-4.28 14 14 0 0 1-.34-1.89 11 11 0 0 1-.05-1.19v-.73c0-.26.06-.81 0-1.22a12.65 12.65 0 0 1 .26 1.31 10.92 10.92 0 0 0-.29-1.8c-.08-.42-.16-.8-.22-1.14-.12-.69-.18-1.26-.24-1.81a13.83 13.83 0 0 0-.82-3.75c.19.23.19-.24.19-.69-1.9-7.24.13 2.25-2.22-4.85-1.57-6.38.57-2.37.43-4.21 1.95 5.23 2.09 5.19 2.41 5.16s.67.05 2.18 6.09c.92-.18.27-5.14-1.62-11.44.74 4.21-2-2.24-1.22 3.37a40.8 40.8 0 0 0-3.78-8.64 41 41 0 0 1-3.5-9.39l.22.19-2.16-3.78-1.74-5.63c2.24 3 3.4 7.41 4.93 10-1.57-7.15-4.37-8.71-7.19-16.38-1.35-6.75 3.55 7.52 4.47 7.18-.84-1.47-2-5.8-1.53-5.41 2.42 7.31 2.26 4.11 4.83 12.43-1.8-3.85-.06.72-.73.12.73 1 3.73 8.7 5.21 14.48 1.06 1.1-.89-5.13-1.85-8.69-3-6.37-4.35-13.44-7-18-2.66-6.75.43-.75.36-1.19-2-6.19-1.54-2.43-2.43-4.31-3.8-9-2.84-10.4-4.63-16.84a19.26 19.26 0 0 1-.89-2.27c-.07-.22-.15-.44-.22-.67s-.22-.77-.34-1.17c-.27-.85-.43-1.77-.8-2.65l-5.7-7.45-5.53-7c-1.93-2.25-3.82-4.43-5.53-6.41 1.08.72.37-.5.15-1.16-2.64-1.81-3.46-2.39-4.38-3.16s-1.92-1.73-5-4.09l2.2 2.43C327 63.73 328 65 328 65a70.84 70.84 0 0 0-5.54-4.75 46.19 46.19 0 0 1-5-4.81c4 5.06-6.86-4.93-10.21-6.86-3.94-3.58-8.76-6-10.77-8.18l.63.36-3.11-2.21c-.78-.56-1.58-1.1-2.19-1.48l-1-.65 1.41-.48a41.09 41.09 0 0 0-6.66-3.94c-1.9-.84-3.07-1.16-2.36-.56-4.72-3-1.79-1.5-2.24-2.36 1.47.62 3.81 1.54 5.93 2.55s4 2.23 4.55 3.13a5.46 5.46 0 0 0-1.64-1c6.1 4 7.15 4.58 7.67 4.3s.26-1 3.39.91c-3.14-2.19-5.15-4.36-8.83-6.21-.83-.47-2.92-1.68-5.3-2.87s-5-2.4-6.82-3.17a42 42 0 0 1 10.4 6.5c-3-2-3.78-1.71-6.25-3.5l1 .31-3.57-1.54c-.12-1-9.28-5.15-3.67-3.19-4.77-2.26-1.88-.3-6.27-2.22l4.16 2.24 4.13 2.27-.48.56c-3.28-1.14-3.77-2-7.16-3.66l-.07.88s-1.42-.91-2.87-1.75l-2.9-1.72c.54.82-4.05-1.5-5.44-1.9-3.31-1.66-.58-2-6.74-3.61l.4.23c-3.49-.95-5.5-1.65-10.36-3.37a13.4 13.4 0 0 1 2.38.45c-6.71-2.84-18.28-4.39-21.24-6.22.71-.5 3.58.55 3.9-.13 5.36 1.7 7.26 2.11 9.51 2.31s4.71.64 10.91 3c0 .88 2.71 1.61 5.64 2.42s6 1.92 6.87 3.11c-4.68-2.27-11.5-3.63-10.69-3.15a119.14 119.14 0 0 1 13.63 5.49c-2.45-1.66-1.24-2.14.94-1.76C258.81 16 246 10 235.33 7.09l.93 1.28c-9.32-1.78 1.38-.68-5.81-2.51h-3.36l-.43-.19-2.75-.17-2.75-.07c3.77.67 2.2-.39 6.22.95 3.57 1.16-.33.68-1.48 1-2.4-.92-11.39-2.28-5.75-1.93l-5-.41-5-.23c.12-.35 2.29-.2 3.33-.24l-3.58-.43c-1.78-.23-3.57-.39-3.57-.39l.28-.11c-5.81-.23-13.88-.81-18.32-.15 4.9.46 3.71.69 1.43.76s-5.69.28-5.27.55c-3.49-.13-4.64-1.85 2.91-2.45 2 .51 7.19.1 11 .27a58.8 58.8 0 0 0-10.29-.31c2.74-.41-5.11-.64-5-1 .51-.28 2.14-1.1 7.13-.68 7.42.43.73.93 2.93.89 1 .53 3.54.59 6.43.69s6.11.26 8.33.65c.45.14-1 .06-1.75.06C210 3.26 218 4.49 218.67 4c0 0-2.39-.38-4.8-.57L209.06 3c-2.06-.5 3-.15.08-1-2.19-.19-4.84-.29-7.68-.75l.54-.15a74.11 74.11 0 0 0-10.57-1c-3.9-.09-7.91-.07-11.3.16-1.49 1.5-5 2.39-7.81 4.13a205.82 205.82 0 0 0-30.62 4.3c.23.26.21.57-.22.93-3 .34-8.21 2.17-8.27 1.41-2.91 1.59-11.31 5.08-9.41 5.21l-1.1.48a48.27 48.27 0 0 0-7.34 1.84c-1.53.53-3.22 1.16-5.16 1.94l-2.06.86-.55.23-.44.41-.91.85c-.74.69-1 .85-1.41 1.25l-1.29 1.07c-1.39 1.15-1.31 1.68-.55 2-1.69 1.09-3.31 2.06-4.89 3.13a24.67 24.67 0 0 1 3.68-3.71s-2.88 2.23-6 4.18c-1.54 1-3.1 1.91-4.28 2.56l-1.37.67-.79.41.23-.18.27-.21.16-.15.39-.41-.84.55A8 8 0 0 0 87 36c-1 1-1.23 1.35-1.62 1.78l-.62.64 2.08-2c.57-.45 1-1.12 1.67-1.36l1.7-.82c1.34-.59 2.27-.88 1.92-.26l-1 .66-.48.3-.64.37c-.49.28-1 .53-1.45.81l-1.16 1.03-.88.85c-.23.22-.46.45-.7.65l-1.4 1.23a73.37 73.37 0 0 0-5.72 5.2c-.76-1.07-2.45 0-1.37-1.81a5 5 0 0 1 .58-.36 92.82 92.82 0 0 1 6.48-7.54c-4.35 3.72-6.31 5-8 6.35s-3.21 2.42-8 5.89c-.65 0 1.44-1.83 3.29-3.41s3.47-3 2.29-2.41c0 0 2.17-1.48 4.14-2.93s3.82-2.93 3.82-2.93a17.07 17.07 0 0 0-1.75 2c1.19-1.14 2.17-2.09 3-2.94l1.88-1.81a7.89 7.89 0 0 1 2.68-1.76l.93-.51.62-.35c.41-.25.82-.51 1.24-.8a21.83 21.83 0 0 0 2.6-2.09c2.83-1.4-3.8 3.11-.84 1.38a29.69 29.69 0 0 0-3.21 2.61l-.33.32-.72.51-1.26.93a23.82 23.82 0 0 0-1.49 2.05c.64-.58 1.22-1.15 1.77-1.61l1.77-.92c.2-.1.39-.21.56-.31l.35-.2.6-.39a7.13 7.13 0 0 0 1.38-1.25 16.41 16.41 0 0 1 3.71-3.43l2.17-1.13L99.75 25c2.2-1.9-1 .28-1.26.19a39.12 39.12 0 0 1 3.21-2.47l1.29-.93.64-.51c.32-.27.84-.78 1.29-1.21l-1.12.93a5.47 5.47 0 0 1-.76.5c-.41.24-.74.36-.67.11l.64-.45.32-.23.08-.06.21-.19.31-.28 1.23-1.09c.21-.18.4-.38.62-.54l.76-.32 4.46-1.88a29.8 29.8 0 0 1 7.15-2.14c-2.79.53 2.47-2.38 4.5-3.34l-4.84 1.31-3.34.92-1.49.49-4.13 1.95-2.91 1.34-.86.4a3.76 3.76 0 0 0-.71.62L103 19.41l-1.46 1.36-1.22 1c-.81.68-1.67 1.35-2.54 2-1.74 1.31-3.59 2.6-5.59 3.92-1 .65-2 1.31-3.11 2l-.8.48-.52.3-1 .52c-1.38.54-2.33 1.78-3.42 2.8l.77-1.3-1.23 1.09-.59.49-1.1.93-2.1 1.66c-1.3 1-2.47 2-3.48 2.82a55.94 55.94 0 0 0-4.85 4.57c-1.38 1.44-2.69 2.9-4.56 4.75s-4.35 4.14-7.84 7.78c-.58-.18-2.16 1.59-3.53 3.34s-2.51 3.5-2.69 2.91A29.2 29.2 0 0 0 54.82 59c0-.27-.64.15-1.38.73-1 1.6-1.68 3-2.6 4.82l-1.42 2.72c-.51 1-1.15 2-2 3.29.63-2.19-2.35 2.19.38-3-4.24 7-6.24 10.87-7.42 15-5.38 11.95-2.88 2.82-8.45 14.76l.52-1.91-3.54 7.43 1.66-2.2-1.85 4.51c-.91 2.26-1.81 4.52-1.81 4.52-2 5.67 1.61-1.94 1.68-1l.18-2.14c1.82-3.49 3.75-8.69 4.58-9.19-2.75 5.78-1.56 4.65-2.39 7.08l2.43-5.59 1.39-1.52c2.76-5.37 5-9.4 6.19-12.86-1.43 2.07-1.45 3.82-2.85 5.61.53-3.07 4-9.69 7.24-16.15.29-.06 1.48-2 1.17-1.1a12.1 12.1 0 0 1-1 1.88c.64-.28-1.11 3.39 2.45-2.44-.65 2.47-2.11 7.44-1.83 7.39-1.77 3.54-4.33 8.47-6 11.18v-.29c-1.7 3-4.41 9.8-5.25 10-.81 2-3.21 7.28-.22 2.12l-2 4.5c-1 2.25-1.93 4.51-1.93 4.51-.41-2-4.53 6.32-1.3-2.94-.11.24-1.05 2.45-2.52 6.08.66-3.48-1.7 1-3.87 6l.12 1.45c-2.19 4.12-3.76 6.52-5.73 12.44 0 0-.63 3.65-1.27 7.29l-1.06 7.3c-.4 1.35-.76 2.73-1.09 4.12-.91 1.71-2.4 7.93-2.46 5.31-.48.54 0-1.57.88-4.23.2-.38.06.3.27-.1-.19-.88-.57-1.36-2 1.81a35.77 35.77 0 0 0 1.71-6.19s-.29.83-.55 1.67l-.54 1.68c1.29-5.06 2.95-13 2.39-13 .22 1.77-1.55 4.73-2.58 7.38.51-2.12 1.5-6.66.32-3.32-.11 1.3-2.53 10.61-.17 4.2a88.14 88.14 0 0 1-2.46 9.75c.67-3.81-.31-1.45-.55-2.64-.49 3.43.16 3.48.28 4.09-1.55 4.66-2.94 7.88-4 11.36a58 58 0 0 0-2.73 12.68c-.15 1.46.91-6.69 1.27-5.55a42.12 42.12 0 0 1-1.58 9.08c-.33 1.22-.67 2.41-1 3.73l-.21 1c-.07.45-.15.9-.23 1.37a11.5 11.5 0 0 0-.09 2.17v1.23s.23-.48.47-1c0-.13.11-.21.17-.38l.2-.5.15-.57c.05 1.21.15 3.25.25 5.36.1 1.95.21 3.95.28 5.27-.34.64-.43 8.6-1.11 2.76a32.53 32.53 0 0 0 2.33 12.54l1 2.51.6 1.45a15.1 15.1 0 0 0 1 2.39c.59 1 1.26 2.07 2 3.32.57 1 1.11 2.16 1.75 3.52a53 53 0 0 0-2.43-5.17c-.28-.53-.55-1-.84-1.57a8.67 8.67 0 0 1-.8-2.05c-.27-.91-.38-1.21-.54-1.86s-.34-1.23-.49-1.93c2.08 5.95.63.81 1.42 1.33a11.55 11.55 0 0 0 .33 1.82c.13.49.27 1 .42 1.52a14.18 14.18 0 0 0 .71 1.49l1.63 3.19c.77 1.69 1.05 2.35-.67-.24 1.73 3.26 4.58 10.36 5.54 12l-.46-1.66-.48-1.63c2.08 5.18 4.43 10.42 5.84 12.47-2.45-6.79-3.39-6.25-6.6-14.48-3.24-8.92 1.55 1.81-.17-4.27l-1.78-2.88c-1-1.44-1.79-2.6-2-3.1l1.58 3.13A4.25 4.25 0 0 1 8 228c-.14-.22-.28-.46-.42-.71l-.8-1.45a30.22 30.22 0 0 1-.97-2.84c-.81-3-1.24-5.57-1.72-5-.31-4.24-.38-6.8-.51-9.47a71 71 0 0 1 .24-9.53c-.39-2-.4 1.07-.4 3.45a26.75 26.75 0 0 0-.49-4.45 14.42 14.42 0 0 1-.18-2.15 10.67 10.67 0 0 1 .13-2.26c.16-.87.26-1.23.45-2 .26-1.39.1-1.63-.21-.91a10.35 10.35 0 0 0-.55 1.79 13.85 13.85 0 0 0-.34 1.92v2.21-2c0-1 .2-1.76.23-2.2.14-1 .27-2.1.4-3.17.28-2.12.51-4.32 1-6.63l-.76 2.32c-.35 1.18-.69 2.35-.69 2.35l.34-2.48c.21-1.24.41-2.47.41-2.47l-.56 2c-.25 1-.49 2.06-.49 2.06 1.29-9.49 3.78-20.22 6-24.82-.75 4.1-1.73 9.46-2.63 14.42-.72 5-1.33 9.58-1 12 .53-1.75.17-6.62 1.6-8.79l-.22-2.59c.35-2.87 1.51-9.48 2.32-9.88a76.93 76.93 0 0 0-1.17 14c.14.05.08.77-.08 1.9v.12-.07C6.54 185 6 188.81 5.87 191c-.52 2.72-.64.78-.74.47q-.18.87-.36 1.71a10 10 0 0 0-.23 2.45v3.19c.1 2.09.3 4.12.57 6.19l1.93 13.67c-.27.11 0 2.24.35 4.09.38 2.29 1.52 4.26.44 2.63.43.8.83 1.56 1.21 2.29l.85 1.45c.52.93 1 1.77 1.52 2.55 1 1.55 1.87 2.95 2.78 4.5-.16.9 2.9 7.81 1.36 5.46l1.29 2.2c.63 1.13 1.27 2.25 1.27 2.25.86 3.4 3.62 10.29 3.44 11.69 1.45 3.7 1.21.75 2.74 6.06-.21-.19-.15.25-.5-.85A46.14 46.14 0 0 0 28 273.55c-1.25-3.76-.29-.89-1.78-5.34.38 0 2.65 4.69 4.52 9.77-1.89-3.17-1.51-1.76-.88.09s1.67 4.1.68 2.64c.62 1.34 1.28 2.58 2 3.76l1.13 2a19.46 19.46 0 0 0 1.49 1.88l4.11 4.75c2.66 3.07 5.23 6.06 8.26 9.73 3.22 4.57 7.08 9.87 11.82 14.2a45.37 45.37 0 0 0 7.51 5.54c2.47 1.35 4.69 2.35 6.71 3.25l-1-.58 4.78 2c2.61 1.42-.42.86 3.76 2.84-1.79 0-7.11-3.67-11.62-5.45 3.41 2.32 1.64 1.59-.43.68s-4.57-2.22-2.19-.42c3.63.08 15.36 8.09 22.1 10.56 6 3.34-3.13-.82-.14.84l2.2.55c2.36 1.38 3.09 1.94 2.86 2.23a114 114 0 0 0 20.12 8.82c-7.43-2.94 2.78.39-4.39-2.86 2.29.73 7 2.69 11.53 4.52-4.43-1.56 5.36 3.52-4.16-.76 1 1.37 4.81 1.87 9.09 3.68-2.34-.57-7.42-2.1-7-1.83 3.45.81 8.61 3.07 13.38 4.94s9.12 3.44 10.54 3.47c5.14.7 12.92 2 19.21 2.35a7.31 7.31 0 0 0 1.44.3l1.18.17 2.34.28 4.83.42c3.28.25 6.66.46 10.07.79l-1.24.24c3.85.46 9.9.54 15.63 1l1.25.68c4 0 11.4.12 17.48.08.06-.36-5.54-.29-2.89-.74-3 0-5.58 0-4.51.45-3-.09-3.12-.68-5.58-1l5.82-.06 5.83-.19a3.93 3.93 0 0 1 1.33.15l.84-.68c3-.08 3.9.06 3.4.35a57.62 57.62 0 0 0 7.7-1c2.23-.4 4.51-.67 8-1a32.17 32.17 0 0 1-9.63 1.82l3.95-.28c2-.11 3.95-.35 3.95-.35-1.77.57-6.09.92-9.66 1.35s-6.42.59-5.23 1.06c4.36-.31 9.72-.86 14.9-1.69a114.73 114.73 0 0 0 13.86-3.1 35.49 35.49 0 0 0 7.28-1.4c2.72-.91 5.77-1.85 9-2.82.92-.16 2.93-.7 1.87.05l-1.77.69c2.12-.76 4.31-1.55 6.48-2.44s4.26-2.07 6.34-3.14 4-2.44 5.89-3.63a19.86 19.86 0 0 0 2.8-2 20.33 20.33 0 0 0 2.4-2.43 22 22 0 0 0 1.78-1.43c.86-.76 1.64-1.6 1.64-1.6a22.6 22.6 0 0 0 2.62-5.3c.18-.6-.11-.39-.41-.21s-.61.35-.47-.31a21 21 0 0 1 2.15-5c1.41-2.16 11.54-10.86 12.34-10.62 1.92-1.58 2.83-2.24 2.77-2.84-1.84 1.29-5.6 4.54-3.77 2.32 3.43-3 5.45-3.95 8.38-6.12-.12.25-2 2.14-.91 1.23 3.5-2.77 8.79-6.48 13.71-10.74s9.19-9.29 11.19-13.19l-2 3a16.62 16.62 0 0 1-2.94 3.31c-.22-.32 1.44-1.94 1.92-2.8-.85 0-2.66 3.7-6.42 6.33l.81-.87 1.69-2c.63-.71 1.19-1.48 1.62-2l.71-.94a56.64 56.64 0 0 0 7.61-10.35s9.67-11.05 9.67-16.58c8.29-27.63 13.82-52.5 16.58-77.37a74.52 74.52 0 0 0-1.31-12 45.11 45.11 0 0 1 1.31 17.05c-.1-.27-.07-1-.24.16-1.11 7.45-.29 10.62-1.91 16.5l-.28-.82c0 .51-.32 4.1.26 3.48.74-5 .69-6 1.52-10.49a50.76 50.76 0 0 1-.75 8.9l.66.45c.09 3.93-1.76 7.57-1.78 11.46l1.37-4.31c0 .13-.05.48-.08.77a23.51 23.51 0 0 0 .47-4.26c.84-6.73 2.38-10 2.94-11 .74-3.11.74 1.27 1.24 1 .63-5.1-.21-4.92.31-10 .26-1.23.35-.9.36-.36v-3.33a7 7 0 0 0 .33-1.37l.26-1.53c0-.55 0-1.11.06-1.62.06-1.71.18-2.72.57.14a16.26 16.26 0 0 1-.05 2.11c-.08.64-.17 1.33-.24 1.93.08-.44.17-.9.26-1.38a9.37 9.37 0 0 0 .21-2.16c.05-1.21.05-2.36 0-3.55-.01-2.42-.2-4.74-.32-6.74zM320.23 64.15a2.57 2.57 0 0 1-.83-.52c2.86 2.68 4.35 4.2 5.69 5.59s2.65 2.54 4.73 4.86l-1.55-1.18c.27 1.23 4.19 4.51 7.35 8.47 1.15 1 3.52 3.31 4.35 5.19l-.79-.37a18 18 0 0 0 2.07 3.42c.57.85 1.31 1.82 2 2.91.31 1.26.63 2.61 1 4l-.71-1.52c-.2-.8-.41-1.6-.59-2.41a184.63 184.63 0 0 0-34-36.87c3.57 2.55 7.32 5.34 11.28 8.43zM222.9 13.56c2.94.29 6.71.42 11.44 1.12l-.29.06 4.83 1.26 4.78 1.45-1.26-.06 2.88.62c1.45.29 2.87.68 2.87.68-.37.64 1.58.94 1.09 1.3 3 2.38 12.37 4.1 19.32 8.11l-1.25-.21c2.12.53 5.42 2.33 9 4.26 3.49 2.1 7.23 4.36 10.06 6.3h-.28c-2.79-1.49-4-1.82-3.8-1.37q-4.21-2.44-8.56-4.69a11.82 11.82 0 0 0-1.17-1c-1.11-.4-2.43-1-3.78-1.59l-.71-.3q-6.62-3.18-13.45-5.87a23.74 23.74 0 0 1 2.4.51l-2.82-1.09-6.28-2.15c-2.27-.83-4.62-1.42-6.35-2l-2.89-.86q-8.07-2.42-16.3-4.14c.62.03.46-.09.52-.34zm-85.73.44l.68.51c11.81-2.88 20.15-6.08 32.87-6.78-1.7.74-6.51.78-5.82 1.07 7.57-.48 6.44-2.26 14-1.62-10.71.57 6.67.1-2.95 1 13.42-1.67 27.68 1 36.34 2.19-2.14-.73 3.67-.14 3.93-.16 2.26.49 1.42.76-.41.44 4.4 1.21 5.06 1.9 4.22 2.29l-4.54-.81c-2.26-.39-4.55-.65-4.55-.65a33.61 33.61 0 0 1 3.9 1c-4.66-.78-9.34-1.36-14-1.79-.86-.21-1.3-.4-.88-.51-3.15-.11-7.78-.84-9.49-.83 3.3.5 2.59.6.74.69-1.68-.07-3.36-.09-5-.11 0-.19 1-.38-.78-.5h-3.68l-3.75.24 3.2-.05c1.6 0 3.2.05 3.2.05l-.76.29a172.1 172.1 0 0 0-45.85 6.22 37.9 37.9 0 0 1-7.78.28c2.49-.98 4.99-1.78 7.16-2.46zm-36.32 19.68l2.64-2.27-.56.4c1.86-1.48 3.62-3 5.26-4.6.86 0 1.35.13 1 .65l-.76.7-.1.07a82 82 0 0 1-7.24 5.65c-.77.35-1.83.92-3 1.58zm-7.53 5.21l4.42-2.4c-2.25 1.43-4.4 2.68-6.24 3.6l-.7.67a5.18 5.18 0 0 1 2.52-1.87zM55.11 72.73l-.88.74c1.48-2.3 2.06-4.47 3.39-5.56-.09.26-2.11 5.82-3.89 10.73l-2.13 3.84c-1.13.93-4.84 6.06-9 12.24 3.82-7.21 8.17-14.62 12.51-21.99zm-29.34 44.66a2.37 2.37 0 0 0 .12-.78c.51-1 .75-1.72 1-1.81l-1.16 2.88zm-4.3 31.33l-.14.48a26.69 26.69 0 0 1-1 2.8c.38-1.13.76-2.2 1.14-3.28zm-6.09 19.73c.93-3.24 1.71-6.4 2.68-9.39-.51 2.25-.89 4.6-1.67 7.3.25-.68.5-1.42.74-2.17q-2 7.81-3.51 15.93a47.37 47.37 0 0 1 1.32-8.25c-.09.42-1 3.62-2 8.36v-1.64c.78-3.5 1.63-6.88 2.44-10.14zm114 180.38l1.61.2c1.21.45 2.43.89 3.65 1.32-.25.24-.64.59-5.26-1.52zm7.48 2.27l3.18 1a13.91 13.91 0 0 1-2.37-.58zm229.56-174.32c-.11-.71-.23-1.42-.34-2.13.35 1.4.67 2.61.9 3.6z" class="tmp-cls-1" transform="matrix(.9 0 0 .9 101 93)"/><path d="M157.83 4.64s-.77.17-1.54.39l-1.52.45a66.15 66.15 0 0 0 10.44-2.08c-.26.16.2.21 1.13.31 5.23-.57 8-1.6 5.22-1.89l-1.74.38-3.73-.39c-.64.66-3.65 1.22-7.24 1.72a89.62 89.62 0 0 0-10.58 2.05c3.89-1.23 7.18-3.22 12.54-3l-.65-.6c4.55-.75 8.32-.29 10.8-1.16l-5.31.58v-.38c-3.77.5-8.5 1.55-12 1.82-1.48.49-2.9 1-5 1.61S144 5.85 140 6.66l.23-.19c-2.53 1.31-6.31 2.12-9.93 2.94s-7.13 1.6-9 2.69c-1.87 2 8.67-2.55 11.51-2.76-3.16 1.44-6.84 2-3.82 1.78-7.41 3.09-4.93.48-10.83 3.67l3.62-1.07c-2.57 1.6-7.31 3.08-9.77 4.92 0 .95 4.54-2.14 10-3.82l-2.11 1.54s2.53-1.24 5.1-2.36l5.24-2.13c2.85-2.08-.14-1.18 6.5-3.83 2.55-.26 4.42 0 4.94.57a37.16 37.16 0 0 1 6.16-2.11c2.88-.64 6.34-1.35 9.99-1.86zM365.68 215.6c0 1.68-.89 5.72-.21 5-.57.02 1.3-7.23.21-5zM364.3 221.66l-.11.64c.05-.25.08-.46.11-.64zM365 217.28l-.84 3c.07.27.27.2.11 1.34zM362.43 126.21a25.33 25.33 0 0 0 1.66 4.13c.29-.52-1.09-2.84-1.66-4.13zM240.27 367c3.12-.61 7.28-1.18 11.4-2.28 4.14-.88 8.2-2.26 11.26-3.19s5-1.88 5-1.88c-9.19 3.5-18 6-32.86 8zM300.52 42.45l1.26 1.5c1.83 1.21 3.42 2.24 4.91 3.17l4.1 2.77a85 85 0 0 1 8.72 6.63 63.22 63.22 0 0 0-5.61-5.14A74.361 74.361 0 0 0 309 48a80.23 80.23 0 0 1-9.81-7s.7.7 1.33 1.45zM301 40.91c4.93 3.38 2.72 1 7 4.3l-1.61-2.29c.7 1.55-6.09-3.28-5.39-2.01z" class="tmp-cls-1" transform="matrix(.9 0 0 .9 101 93)"/><path d="M272.34 22.77l-3.94-2.12 2.97 1.87.97.25zM242.38 11.23l4.24 1.02-.39-.21-4.26-1.02.41.21z" class="tmp-cls-1"/><path d="M140.45 5.9c6-1.17 4.9-1.89 8.51-2.79-6.8 1.55-8.27 1.54-16.27 4 6.31-1.54 7.98-1.8 7.76-1.21zM149 3.11l2.39-.46c-1.04.16-1.78.35-2.39.46zM127.36 8.72c.17-.6-5.1 1.47-3.94 1.12a36.22 36.22 0 0 1 3.94-1.12zM155.65 12c-2.26.33-4.29-.27-6.1.82.67.18 4.51-.64 6.1-.82zM110.91 17.36c0-.1-.3-.08-.9.15-.36.14-.55.22-1.31.57a20 20 0 0 0-2.8 1.47 10.09 10.09 0 0 1 2.78-1.1c.83-.22 1-.09.75.25.75-.47 1.57-1.14 1.48-1.34zM141.49 14.59l2-.63s-1.24.29-2.46.66l-2.43.76.89-.07zM50.82 63.46s.44-.89.93-1.7l1-1.62L51.28 62l-1.37 2c.86-1.08.09 1.39.91-.54zM49.38 64.81l.53-.79a8 8 0 0 0-.53.79z" class="tmp-cls-1" transform="matrix(.9 0 0 .9 101 93)"/><path d="M40.99 83.51l2.3-4.56-2.6 4.93.3-.37zM28.67 104.12l-.54.73-1.55 4.01.55-.75 1.54-3.99z" class="tmp-cls-1"/><path d="M35.92 290.74l.86 1a12.62 12.62 0 0 0-.86-1z" class="tmp-cls-1" transform="matrix(.9 0 0 .9 101 93)"/><path d="M83.53 336.61a44.33 44.33 0 0 1 7 3.64c.88 0-1.57-1.69-1-2-7.44-4.5-9.56-3.35-16.84-7.64.53-.29 3 .58-1.87-2l1.3.58a30.37 30.37 0 0 1-6.61-3.84 21.18 21.18 0 0 0-5.16-3l.58-.47c-4.2-2.27-10.22-8.94-12.93-12.66l.28.14a82.5 82.5 0 0 1-6.19-8.06c-1.07-1.57-2.15-3.47-6.11-8.7l2.1 2.22 2.11 2.3c-2.34-4-3.69-4.29-5.54-6.93.2.08.25-.51 1.3.58-.23-.26-.48-.56-.79-.9l-.8-.88-.44-.48c-.26-.3-.53-.61-.79-.93-1-1.48-1.47-2.31-2.12-3.27-2.42-3.84-4.46-7.82-4.46-7.82-2.21-3.69-.16 1-.16 1.75-1.16-1.27-3.75-8.52-3.42-9 .52.89 2.22 4.66 1.52 2.14l-3.16-5.19c-1.95-7.67 3.34 5.13 5.4 8.64-2.93-7.6-4.38-9.63-7.06-17.54a36.64 36.64 0 0 1 1.11 5.26c-.7.54-2.86-7.05-4.63-12.11.77 3.37-.16 1.58-1.27-.68a4.47 4.47 0 0 0-.43-.86c-.13-.26-.25-.51-.38-.76l.21.6c-.1 0-.16.16-.15.65 1.68 4.15 2.14 7.76 3.09 10.61.15-1.62 1 .78 2.13 4.06a83.8 83.8 0 0 0 3.46 9.29l.92 2.12c.45 1.05 1 2.11 1 2.11l.72 1.6c0 .38-.36 0-1.69-2.34 1.06 2 4.27 8.79 4.4 8l1.29 2.39.9 1.64a10.93 10.93 0 0 0 .73 1l.64.82c.51.67 1.07 1.35 1.6 2.09 2.16 2.87 4.29 6 4.29 6a8.72 8.72 0 0 1 .55 1.19c.37.4.47.43.49.34l1.64 2.41c1 1.55 2.58 3.82 4.57 6.6 4 5.49 10.4 13.64 19.94 19l11.2 6.03 9.76 5.17c5.74 3 9.65 4.92 9.65 4.92-3-1.61-5.51-3.25-8.57-5 5.03 1.67-5.07-2.81-3.31-2.83z" class="tmp-cls-1" transform="matrix(.9 0 0 .9 101 93)"/><path d="M19.64 257.22c-.24-.86-.55-1.83-.95-2.94.31 1.1.66 2.04.95 2.94zM99.76 346.61l-4.39-2.17c1.34.72 2.74 1.44 4.39 2.17zM13.23 243.35s-.7-1.91-1.47-3.73-1.55-3.62-1.55-3.62c.73 2.59-1.29-1.62-1.73-1.91 0 0 1 2.14 1.91 4.36s1.79 4.55 1.79 4.55c.24-.18.88.62 1.05.35z" class="tmp-cls-1" transform="matrix(.9 0 0 .9 101 93)"/><path d="M12.67 245.82a10.57 10.57 0 0 1 1.33 2.25L12.18 243c-.18.08-.18.68.49 2.82zM134.5 358l2.24.71c-1.02-.34-1.69-.55-2.24-.71z" class="tmp-cls-1" transform="matrix(.9 0 0 .9 101 93)"/><path d="M163.12 366.74a11.87 11.87 0 0 1-1.31-.35 4.23 4.23 0 0 1-1.51-.73c-.1-.17 0-.32 1.59-.22-7.9-1.21-18.39-4.62-20.35-4.42.19-.08.19-.26-.91-.68l-4.72-.6 4.2 1.58a63.61 63.61 0 0 1-11.66-3.32 69.63 69.63 0 0 1-9.68-4.24c8.1 2.91 4.37.52 15.5 5-.43-.42-2.36-1.55.23-.81-13.4-4.23-24.62-9.75-37.78-15.33 9.72 5.75-6.9-2.67-4.2-.17l5.64 2.43h-.59l6.8 3.18c-1.19-1.1-2.22-1.62-1.7-1.93 9 4.45 2.6 1.89 9 5.55l5.21 2.2 5.28 2.09-.91-.2a6.52 6.52 0 0 0 1.64.49s8.93 3.49 18.27 6.13a172.1 172.1 0 0 0 19 4.33l1.2.15a7.77 7.77 0 0 0 1.21.1c.75 0 .86-.05.88-.11s.04-.04-.33-.12zM232.69 367.23c.25-.07.33-.12.11-.1zM226.56 368l1.5-.58-3.4.74-3.4.62s2.66-.05 5.35-.3L232 368l.71-.77a24.38 24.38 0 0 1-6.15.77zM213.88 367.89l-.57 1.61c5.51-.3 5.19-1.21 2.19-1.49 5-.49 2.69.81 6.14-.16-.14-.59-6.35 0-7.76.04z" class="tmp-cls-1" transform="matrix(.9 0 0 .9 101 93)"/><path d="M173.43 367.18l1.52-.23-3.67-.37 2.15.6z" class="tmp-cls-1"/><path d="M175 367l3.65.37a2.2 2.2 0 0 0-1-.75zM193.67 368.66l-5.41-.45c1.57.15 3.29.33 5.41.45zM184.16 367.85l4.1.36-4.21-.48z" class="tmp-cls-1" transform="matrix(.9 0 0 .9 101 93)"/><path d="M185.15 368.8l-1-.95-5.56-.53c.57.61 1.22 1.26 6.56 1.48zM203.69 369.26c-.1.36 2.77.22 4.2.15-1.16-.06-2.8-.22-4.2-.15zM302.85 328.81a9.61 9.61 0 0 0-1.74 1.28z" class="tmp-cls-1" transform="matrix(.9 0 0 .9 101 93)"/></g></g></g><path xmlns="http://www.w3.org/2000/svg" id="icon-svg" fill="#fff" fill-rule="evenodd" d="M19.032 4.309C14.974 5.602 6 13.871 6 16.316 6 17.792 7.348 18 16.893 18c9.011 0 10.998.273 11.5 1.582 1.096 2.855.653 14.972-.593 16.218-.798.798-5.156 1.2-13 1.2H3v126h11.066c14.76 0 14.934.115 14.934 9.913 0 5.243-.434 8.202-1.309 8.929-.721.597-6.154 1.215-12.076 1.372L4.85 183.5l2.902 4c1.596 2.2 5.343 5.35 8.325 7l5.423 3h78c88.387 0 83.634.417 91.421-8.03 2.243-2.434 4.079-4.885 4.079-5.448 0-.63-3.95-1.022-10.3-1.022-6.678 0-10.722-.422-11.5-1.2-1.603-1.603-1.603-15.997 0-17.6.798-.798 5.156-1.2 13-1.2H198V37.06l-12.75-.28-12.75-.28v-18l11.25-.283c8.966-.225 11.25-.573 11.25-1.715 0-2.579-6.381-8.77-11.493-11.151L178.5 3.02l-78 .092c-53.949.064-79.069.433-81.468 1.197m36.392 15.029c-.283.737-.381 4.899-.219 9.25L55.5 36.5l14.993.278C87.977 37.102 88 37.09 88 27.743 88 17.837 88.286 18 70.933 18c-11.602 0-15.112.303-15.509 1.338m58.801-.163c-1.628 1.628-1.604 13.925.032 16.162 1.109 1.516 3.028 1.686 16.25 1.441L145.5 36.5v-18l-15.025-.275c-10.84-.198-15.367.067-16.25.95M69.557 66.223c-1.331 1.9-1.557 6.904-1.557 34.5 0 31.39.057 32.334 2.087 34.364 1.503 1.503 2.793 1.909 4.614 1.452 1.391-.349 14.514-7.532 29.164-15.962 28.77-16.556 31.421-18.735 27.528-22.628C128.004 94.56 75.725 64 73.316 64c-1.211 0-2.903 1-3.759 2.223M56.25 163.662c-.867.35-1.25 3.202-1.25 9.314 0 7.111.305 8.927 1.582 9.417.87.334 7.588.607 14.928.607 16.275 0 16.49-.131 16.49-10 0-9.918-.169-10.017-16.821-9.921-7.524.043-14.241.306-14.929.583m58.321.909C113.448 165.694 113 168.1 113 173c0 9.869.215 10 16.49 10 7.34 0 14.058-.273 14.928-.607 2.327-.893 2.327-17.893 0-18.786-.87-.334-7.588-.607-14.928-.607-10.8 0-13.647.3-14.919 1.571" transform="matrix(.5 0 0 .5 224 157)"/><path xmlns="http://www.w3.org/2000/svg" id="SvgjsPath5437496" fill="#fff" d="M28.08-36.66c-1.86-3.18-4.92-4.8-8.46-5.16-.66-.06-1.32-.12-1.98-.12-4.08 0-7.74 1.32-10.56 4.5C2.88-32.88-.6-26.52-.6-17.22-.6-8.82 3.12-2.16 8.82-.6c1.44.42 2.82.6 4.14.6 3.84 0 7.26-1.56 10.38-4.68 1.92-1.86 3.48-4.56 4.74-6.9.12-.18.12-.36.12-.6s-.06-.54-.3-.78l-3.6-3.78c-.24-.24-.6-.36-.9-.36-.36 0-.78.18-1.02.54-.84 1.44-1.62 2.7-2.4 3.84-.24.3-.48.66-.72 1.02-.3.36-.54.72-.84.96-1.32 1.32-2.76 1.92-4.2 1.74-3-.54-3.36-5.46-3.36-8.22 0-6.3 2.88-16.32 7.2-16.32.48 0 .84.24 1.14.72.12.3.18.6.18 1.02 0 .78-.18 1.68-.36 2.64-.3 1.2-.72 2.82-.9 3.42-.06.12-.06.3-.06.42 0 .66.48 1.2 1.2 1.2h8.34c.6 0 1.02-.3 1.14-.9.42-1.5.78-3.24.78-4.8.18-2.58-.3-4.86-1.44-6.84zm-7.92-4.5c.18.06.36.06.48.12.12 0 .3 0 .48.06l.24.18c-.12 0-.3 0-.54.06-.18.06-.3.12-.42.12s-.3-.12-.48-.24c0-.06.06-.18.24-.3zm.48 1.44c-.06 0-.06 0-.06.06v.12l-.78-.36c.06-.12 0-.24-.18-.3.12-.12.3-.24.6-.3.06.06.12.12.12.18-.06.06-.06.12 0 .18.06 0 .12.06.3.06.06-.06.18-.06.3-.06.06 0 .18 0 .3-.12.06-.12.18-.18.36-.24.06-.06.06-.12 0-.24-.06-.06 0-.12.06-.18.06.06.12.06.3.06s.3.06.36.12c-.12.12-.24.18-.36.24s-.3.12-.36.12c-.12.18-.06.18-.24.3-.24 0-.42 0-.6.06s-.24.12-.12.3zm-6.9-.48c0 .06-.06.06-.18.06s-.18-.06-.18-.06v-.06c0-.06-.06-.12-.12-.12-.06-.06-.24-.12-.42-.12h.9v.12c0 .12.06.12.06.12zm1.14-.3h.54l-.24.24h-.3zm8.22.48h-.3v-.12h.3zm-7.68.36c-.12-.06-.24-.12-.24-.24 0-.06.06-.12.12-.12h.36c0 .12.06.24.24.3l-.24.18c-.06 0-.12-.06-.24-.12zm3.9.18c.18-.18.3-.24.36-.24.06.06.06.18 0 .24 0 0-.06.06-.06.18 0-.06-.06-.12-.3-.18zm-3.78.42c-.06 0-.18 0-.3-.06-.18 0-.24-.06-.3-.06.06 0 .12-.06.24-.18h.24c0 .06.06.12.12.18zm-.6 1.44l-.12-.06.06-.12.18.12zm5.04 1.32v-.18c0-.06 0-.06.12-.06 0 .12-.06.18-.12.24zm-.24 1.26l-.48.06v-.78h.48zm-3.36.48c0 .06-.12.18-.18.3h-.36c.06-.06.12-.18.18-.3 0-.06.06-.18.18-.36h.36zm6.12 1.14c0 .06 0 .18-.12.3-.06.06-.12.18-.18.3l-.24-.18.06-.66c.36 0 .48.12.48.24zm1.14.3h.66v.12c-.06 0-.06 0-.06.06l-.06.06v.12l-.66-.12zm-.24 1.26c0-.06.3-.54.54-.54.12 0 .24.06.36.12s.18.12.24.12c0 .06.06.06.18.18v.3l-.24.06c.06 0-.06.06-.3.12-.12.06-.24.12-.3.12-.42 0-.48-.24-.48-.48zm-12.66-.24c0-.06.06-.12.12-.12.06.06.12.06.12.06l.06.06zm12 .66l-.36.24-.42.12c-.06 0-.18 0-.3-.06-.06 0-.18 0-.36-.12v-.24c.12-.06.18-.06.24-.06.12 0 .18 0 .24-.06.24-.06.3 0 .48-.3l-.06-.06s.6.36.54.54zm2.04.54s-.06 0-.12.12h-.18v.06c-.06 0-.06.06-.12.06.12.06.18.12.18.3l-.24.18c-.06-.06-.24-.12-.42-.18s-.3-.12-.36-.18c0-.18.06-.36.24-.6h.18l.06.06c.12.12.24.18.36.18.06 0 .18-.06.36-.12h.18zm-15.84.36h-.18v-.18h.18zm-1.44 1.5c-.12.06-.12.06-.12.18-.12-.12-.12-.18-.12-.12-.06-.06-.12-.06-.24-.06-.06 0-.12 0-.12.06h-.06c-.06 0-.12-.12-.12-.24 0-.06.06-.18.18-.36.12-.12.24-.24.3-.42-.12 0-.3 0-.42-.06-.18-.06-.3-.12-.3-.18 0-.12.12-.24.36-.42-.06.18.06.3.18.36.36.18.48.48.48.72 0 .12.06.24.12.36-.12.12-.12.18-.12.18zm.36-1.14c.06 0 .12 0 .12-.12.06 0 .06-.06.12-.06l.18.12c.06.06.12.12.12.18zm.84 0l.06.06s-.06 0-.06-.06zm-3.48.72c.18 0 .36.12.48.24l-.12.18c-.12 0-.24-.06-.36-.18zm-.36.84h-.3c-.06 0-.18 0-.3-.12zm1.38-.12c0 .18-.06.3-.18.36-.12-.06-.48-.12-.78-.12v-.24zm1.14.48h-.3v-.12h.3zm5.04.24h-.12v-.18h.12zm12.66.24l-.06-.12h.06l.12.06zm-20.1.3c.06 0 .06.06.06.18s-.06.18-.24.3c-.3-.12-.42-.3-.36-.6h.42c0 .06 0 .06.12.12zm1.62.9c-.06 0-.18 0-.18-.06-.12-.06-.18-.12-.24-.12-.12 0-.24.06-.42.18-.24.12-.42.12-.48.12 0 0-.06 0-.06-.12-.06 0-.12-.06-.12-.06s0-.06.12-.12c0 0 .06-.06.12-.06h.12l.06.06h.12c.06 0 .06-.06.06-.18a.33.33 0 0 0-.18-.3h.3c.18 0 .72.42 1.02.66zm-2.28.18c-.06 0-.3-.18-.3-.3.24.12.3.18.3.3zm-.84-.12h-.3v-.12h.3zm3.72.9h-.18c-.06-.12-.12-.24-.12-.36s.12-.36.18-.48c.18.36.18.66.12.84zm-.42-.36l-.48-.06v-.12l.48.06zM4.8-24.96c0-.06.06-.12.12-.24 0-.06.06-.18.12-.3 0 .06.06.12.24.12v.36H5.1c-.12.06-.24.06-.3.06zm-1.68.18l-.24-.12c0-.12.18-.24.42-.3l.06.06h.12c0 .12-.12.24-.36.36zm2.4.24h-.3l.06-.24h.3zm-1.5.24h.36c0 .06 0 .06.06.12 0 .06 0 .12-.06.12l-.06.06h-.3zm.84 1.8c-.3-.12-.6-.18-.84-.18 0 0-.06-.06-.06-.18l-.06-.12h.36c.12 0 .24 0 .36.06s.18.12.24.12zm-.06.6c-.06-.12-.06-.12-.12-.12 0 0-.06-.06-.06-.12 0-.12.06-.24.18-.24zm2.28 1.08c0-.06 0-.18-.06-.36-.12-.12-.12-.24-.12-.36 0-.18.06-.36.18-.48.06.12.06.24.06.42 0 .3 0 .54-.06.78zM.3-18.3c0 .06-.12.18-.3.3l-.12-.18c-.06-.06-.06-.12-.06-.24 0 0 0-.06.06-.18v-.18H.3zm23.04 2.46v-.12c0 .06 0 .06.06 0l.3.18c0 .06 0 .12-.06.18s-.12.12-.12.18c-.18-.18-.24-.3-.18-.42zM1.38-10.86c-.12 0-.12 0-.18.06-.06-.06-.18-.06-.18-.06s-.06-.06-.12-.06v-.24l.3-.12h.42l.18.12c-.06.06-.3.18-.42.3zm4.68.84h-.12v-.48h.12zM18.42-2.7l.18.12-.36.72-.18-.06zm-6.66 1.02c0 .06.06.06.06.12.06.06.06.18.06.18h-.48c0-.06.24-.24.36-.3zM43.2-42.06l-8.28.24c-.78 0-1.2.36-1.26 1.14l-.54 8.1c.06 0 .12 0 .18.06l-.06.3c-.06 0-.12 0-.18-.06-.3 3.84-.48 7.74-.66 11.58-.36 6.54-.48 13.02-.6 19.44 0 .72.54 1.26 1.26 1.26l8.64-.18c.78 0 1.2-.42 1.2-1.2v-4.2c-.18.06-.42.12-.6.06v-.06l-.06-.06v-.18c-.06 0-.06-.06-.06-.18h.48c.18.12.24.24.24.42V-7.8h-.06v.06h-.12v-.06l-.06-.06c-.06 0-.06-.06-.06-.24.12-.06.24-.06.3 0 0-1.14 0-1.98.06-2.58h-.06l-.06.06c0 .12 0 .24-.06.3l-.3.18-.12.06-.24.18c-.06-.24-.06-.42-.06-.6 0-.12 0-.18.06-.3v-.24c.06-.06.12-.06.12-.12.06 0 .12-.06.18-.06l.24-.12h.3v-1.74c-.36 0-.78-.06-1.2-.24.36-.12.6-.36.66-.48h-.12l.06-.42c.12-.06.3-.06.42-.06h.18c0-2.22.06-4.44.12-6.72.3-6.42.78-13.32 1.32-19.74 0-.72-.48-1.32-1.2-1.32zm-6.18 2.16c-.12.06-.42.24-.42.36 0 .18.24.3.3.3-.06.12-.06.3.12.42-.48 0-.78.3-.78.42 0 .18.18.24.6.24-.3.06-.48.12-.6.12-.18 0-.36.12-.48.24 0 .06.06.12.12.24.06.06.12.12.12.24 0 .06-.18.18-.36.36 0 0 0 .06.06.12 0 .06.06.12.12.18-.42 0-.72.3-.3.48-.24.12-.36.18-.42.18l-.54.18c-.12.18.12.54.36.6v.54c-.24 0-.3 0-.66.18l-.06-.06h-.12c.12-.06.18-.12.18-.24l-.12-.66c-.06-.3-.06-.66-.06-.9 0-.18.12-.3.18-.36.06-.18.06-.36-.12-.42 0-.12.12-.18.18-.24 0-.06.06-.06.12-.06 0-.12-.06-.18-.12-.24-.12-.12-.12-.18-.12-.24.06-.3.12-.48.18-.6.18-.48.24-.66.18-.54.06-.42 0-.66-.12-.78s-.12-.3-.12-.48c0-.06 0-.12.12-.18.06-.06.12-.12.12-.18.12 0 .24.06.54.06.06.12.06.18.18.24.06.06.12.06.18.18h.24c.06-.12.12-.18.12-.24.06-.06.06-.12.12-.06 0-.06.06 0 .18.18h.36c.12-.12.06-.3.06-.3h.84c.06 0 .18.06.3.12.12.12.24.18.36.18.06 0 .12-.06.24-.18.12-.06.24-.12.3-.12s.18 0 .24.06.18.06.42 0c.18.06.24.18.24.3h-.72c-.18.06-.3.18-.24.3 0 .18-.06.36-.12.42-.12-.06-.24-.24-.36-.48a.738.738 0 0 0-.66-.42.33.33 0 0 0-.3.18c-.06.06-.06.12-.06.18.06.06.06.12 0 .18zm.18 1.26c.24.06.36 0 .48-.18 0-.12.06-.18.12-.3 0-.06.12-.12.24-.12-.06.06-.06.12-.06.24v.18c-.06.06-.06.06-.06.12-.06.06-.48.12-.6.12s-.12 0-.12-.06zm-2.22 6.12c.12.24.18.42.06.6.06.06.12.18.18.3-.24.18-.18.36.12.54-.24.12-.3.36-.3.72 0 .3 0 .6-.06.84-.18.12-.24.24-.24.24-.12.06-.18.18 0 .66.06.18.12.3.12.42 0 0 0 .12-.06.24-.06.24-.12.42-.12.6-.06.12-.06.3-.12.54-.12.18-.12.3-.12.3l.06.3c0 .24.06.42.12.54 0 .12 0 .18.06.24 0 .24.06.42.06.6s-.06.42-.24.72c-.18.36-.24.54-.24.66 0 .18.18.3.48.3h-.48c-.12.24-.12.48 0 .78.06.3.12.42.12.54 0 .06-.06.18-.24.36l-.48.48c.06 0 .12 0 .12.06h.3V-21h.3c-.12.12-.36.84-.36 1.02 0 .12 0 .18.18.96h-.24c-.12.24-.12.3-.06.36.18.06.06.18 0 .24-.06.12-.06.24-.12.48 0 .54-.06.78-.12.84-.06.06-.12.12-.12.24 0 .3.3 1.38.36 1.44-.18 0-.3.06-.48.18 0 .06 0 .12.06.18 0 .06.06.18.12.18h-.36V-15c-.06 0-.06-.06-.06-.12 0-.12.06-.18.18-.36.12-.12.12-.24.12-.3s0-.18-.12-.3l-.18-.36s.06-.06.06-.24c.06-.36.12-.48.12-.42v-.48c0-.18-.06-.3-.18-.36l.18-.12c0-.06 0-.06-.12-.12-.06-.06-.06-.06-.06-.18 0-.06.12-.48.42-.72v.06s0-.06.06-.06c0-.12-.12-.18-.42-.36.12 0 .24-.18.36-.48.18-.48.3-.78-.18-1.08.3-.12.24-.3.18-.54.18-.06.36-.24.36-.36 0 0 0-.06-.06-.06-.06-.06-.24-.18-.24-.36 0-.12.06-.24.24-.36l.18-2.58-.3-.24.18-.18c.12-.06 0-.12-.24-.24l.06-.54c.18-.06.24-.12.3-.24-.12-.12-.24-.18-.3-.18s0-.06.3-.24l.3-4.08c-.06-.06-.12-.12-.18-.12-.06-.12-.12-.12-.12-.18-.12-.06-.12-.18 0-.3 0-.12.06-.24.12-.36-.06-.24-.06-.36-.06-.48 0-.18.06-.3.06-.36.12-.24.12-.3-.18-.54.06 0 .3-.36.3-.54.24.06.48.06.72 0 .24 0 .42.12.48.36-.12.12-.24.24-.42.24-.24.12-.3.24-.3.42-.06.18 0 .36.18.54zm5.88.3l.18.18h-.36c.12-.12.12-.18.18-.18zm.9.42c0-.06.12-.12.24-.24l.36.12c-.18.12-.36.24-.42.24zm.96 5.52c0 .12-.18.12-.24.06-.06 0-.12 0-.24-.06.12 0 .12-.06.12-.06 0-.06.06-.06.06-.06.06 0 .06 0 .12-.06h.12c0 .06 0 .06.06.06zm-1.02 1.86c-.24.12-.36.18-.42.18-.12-.12-.18-.36-.18-.42.24 0 .42.06.6.24zm-.78 1.74v-.18h.24v.18zm-1.92.36c.06-.24.18-.36.48-.36l-.06.36zm2.4.54c0 .06-.06.06-.12.18l-.06.06c-.24 0-.42-.12-.42-.3l.06-.24h.42l.18.18c-.06.06-.06.06-.06.12zm-1.08.12v-.18c0-.06 0-.06.06-.12.18 0 .36 0 .3.18 0 .12-.06.18-.24.3l-.06.06s-.06.06-.12.06zm-.36 1.32c.12.06.24.06.24.18 0 .06-.12.12-.24.18-.36.24-.48.3-.3.18l-.3-.24.12-.48c.12.06.18.06.24.12.06 0 .12 0 .24.06zm1.08 1.02v-.18h.36v.18zm-.24.48v.18h-.48v-.3h.42c0 .12 0 .12.06.12zm.66 1.44l-.24.18c-.12 0-.18 0-.24-.06h-.24c0-.18.06-.3.24-.36.18 0 .36.12.48.24zm.6.78v-.18c-.06 0-.06-.06.06-.18.24-.06.42.06.48.24zm-1.68.6c-.06-.06-.06-.24-.06-.48l.78.06-.06.3v.06s0 .06.06.12.06.12.06.18c-.12.06-.24.06-.48.06v.3h-.54l-.06-.06h-.12s-.06 0-.06-.06v-.24c.3-.12.72-.18.9-.24zm-.3.72c.3 0 .42.06.42.3l-.42.06c-.06 0-.12-.06-.12-.12l-.12-.06-.12.18c-.06-.06-.12-.12-.18-.12s-.06-.06-.06-.06h-.12l.12-.3c.24 0 .36.06.42.12l-.06.06c.18 0 .24 0 .24-.06zm-.3.78c.06-.06 0-.06-.06-.12.3 0 .54.06.66.24h-.48l-.06-.06v-.06zm-6.3.84c0 .06-.06.18-.18.3-.06.18-.12.3-.12.42 0 .06-.06.3-.06.66-.06.24-.12.36-.12.6l.06-2.1c0-.12.06-.18.18-.3 0 .06.12-.06.3-.3zm7.32-.42l-.06.06h-.12l-.24-.18.24-.18h.42c0 .06 0 .06.06.12h.12c.06.12.12.12.12.12.06.06.06.12.06.18l-.12.12c0 .06 0 .06-.06.06s-.06 0-.06-.06c0 0-.06 0-.12-.06 0-.06-.06-.06-.06-.12l-.06-.06zm-.78-.06l.06.24-.36.12v-.18zm2.82.36v.3c0 .12-.06.18-.12.18v.06c.06.06.06.06.12.06s.06.06.12.12v-.72zm-2.64.42c.18 0 .3.06.24.24-.12.12-.3.18-.42.18l-.18-.18c.18-.18.3-.24.36-.24zm-1.38.96l-.18-.18c-.12 0-.18-.06-.3-.18l.06-.06.12-.06v-.06s.06-.06.12-.06H39c0 .12.06.18.18.18.06.06.12.06.18.06l.18.12-.06.36-.12.06h-.12c0 .06-.06.06-.12.06-.12 0-.24-.06-.3-.24zm1.02-.06v-.3l1.08.12zm-1.56 1.02l.12-.24h.54l-.18.42c-.18 0-.36-.06-.48-.18zm2.16.3s-.18 0-.18-.18c0-.06.12-.18.3-.3h.06c.18 0 .3 0 .42.12 0 .12-.06.24-.24.36zm1.62-.18v.3c-.12.12-.3.18-.54.12-.06-.12 0-.3.18-.48.18 0 .3 0 .36.06zm-9.24.66c0-.24.06-.36.18-.48.06 0 .06.12.06.36 0 .06-.06.12-.24.12zm5.94.66c-.12 0-.12-.06-.12-.18 0-.06-.06-.12-.06-.18l.6.12-.12.12-.12.06c-.06.06-.12.06-.18.06zm-.36.06l-.72-.18.72-.12zm1.68-.12h.3l-.06.24h-.3zm-.78.96h.06s0-.06.12-.12c.06-.12.18-.12.3-.12h.24l.06.06h.06c0-.06 0-.12.06-.18l.54.12c0 .06-.06.06-.06.12v.06l-.06.06h-.48c-.06.06-.12.18-.3.24-.3 0-.54-.06-.6-.18 0-.06.06-.06.06-.06zm3.18-.18l.42.06c0 .24-.18.36-.48.36-.06 0-.06 0-.12-.06h-.12V-9c-.06 0-.06 0-.12-.06zm-3.84.24c-.12.06-.18.06-.18.06s-.06 0-.12.06-.06.06-.12.06c-.18 0-.3-.06-.42-.18l.24-.18zm2.28-.18h.36v.18h-.36zm-1.74.48c.06 0 .06 0 .06-.12l.48.12v.24l-.66-.06c0-.06.06-.12.12-.18zm2.7 0v.18l-.48.06v-.36h.42v.06zm-1.5.72c-.18 0-.3 0-.36-.06.12-.12.3-.24.66-.36l.12.42zm-2.7-.18h.54v.18h-.54zm3.12.54v.18h-.36v-.18zm1.02.54l-.12-.12c-.06 0-.12-.06-.12-.18h.18l.06-.06c.24.12.24.24 0 .36zm-3.78.18h-.06l-.06-.06s-.06-.06 0-.12.06-.06.06-.18c.18.12.3.12.48.18h.3c0 .06.06.06.12.06 0 0-.06 0-.12.12h-.06c0 .06-.06.12-.18.18h-.36c.06-.06 0-.06-.12-.18zm3.24.42c-.06-.24-.06-.42 0-.48l.18-.06.06.12c.06-.06.18-.06.3-.12.12.12.24.12.3.12v.48h-.06c-.06.06-.12.06-.3.06a.93.93 0 0 1-.48-.12zm-8.58.36l-.18-.18.24-.18zm8.46-.3l.24.06-.24.3-.18-.12zM39.72-6c.18-.24.54-.3.96-.24-.12.3-.6.48-.96.48zm.42.3c.18 0 .36.06.48.12l-.18.66c-.18-.06-.24-.06-.3-.06v-.12l-.06-.06.06-.18c-.12-.06-.12-.18 0-.36zm.78.72l.12-.3c.12.06.24.12.42.12H42c-.06.24-.06.3-.36.3h-.12l-.18-.06c-.18 0-.24 0-.3-.06zm-1.98.18h-.54v-.24h.54zm3.42.3c-.12.3-.36.54-.72.66l-.48-.12c.12-.12.42-.54.72-.54zm-1.32.54c-.06.06-.18.06-.3.06 0 0 .12.06.3.06l-.06.66-.18.18-.36.12c-.06-.06-.06-.18-.06-.3.06-.12.06-.18.06-.24s-.12-.06-.36-.06v-.24c.06-.12.12-.18.24-.24l.12-.24s.06 0 .12-.12h.48zm.42.72l-.12-.36c.3 0 .54 0 .66.12-.18.12-.36.24-.54.24zm.9 0c0 .12 0 .12-.12.24h-.48l.18-.36h.42zM74.4-41.28l-7.14-.18c-.84 0-1.26.36-1.26 1.14l-.96 15.9-4.98-13.02-.06-.06c-1.02-2.34-2.82-4.14-5.52-3.96l-5.76.18c-.78.06-1.14.42-1.2 1.14L46.44-27.6c-.54 6.36-.78 11.52-1.08 17.46-.18 2.94-.36 5.94-.48 8.88 0 .72.48 1.26 1.2 1.26h8.1c.78 0 1.2-.42 1.26-1.2l.42-21.24 2.28 6s.06-.06.12-.06c.12 0 .24-.06.3-.06l.12.06.3-.06c-.24.18-.48.3-.72.42L63-3.54h.12v.06h-.06l.9 2.52c.24.54.6.78 1.2.78l7.92-.18c.78 0 1.2-.42 1.2-1.26 0-4.5 0-9.06.06-13.62h-.3l.12-.12-.12-.06h.3v-.12c0-.06-.06-.06-.12-.06h-.42c-.3 0-.48 0-.6-.06-.12.06-.18.06-.24.06h-.12l.12-.12-.12-.12c.42 0 .72 0 .78-.06.06-.06.24-.06.42-.06h.3c0-.9.06-1.8.06-2.7 0-.9 0-1.8.06-2.7.12-6.24.54-12.42 1.14-18.6 0-.66-.48-1.32-1.2-1.32zm-21.96 8.4c.06.06.12.18.12.36l-.36-.18c.06-.12.12-.18.24-.18zm-1.08 2.94h.36v.18h-.36zm1.32.48c0-.06-.06-.12-.12-.18v-.24h.36c0 .18-.06.3-.24.42zm2.82-.06c-.06 0-.12.06-.12.06s-.06 0-.18.06c-.06-.12-.12-.3-.12-.48.24.12.36.3.42.36zm-1.38.42c-.12 0-.18 0-.18-.06-.06 0-.12-.06-.24-.12l-.12-.12v.06h-.48v-.24h.48v.18h1.08l-.06.12c-.18.12-.36.18-.48.18zm.54-.24l.48.12-.12.18-.36-.12zm.78.36v-.18c-.06-.06 0-.12.06-.18.12 0 .24.06.42.18-.12.12-.3.18-.48.18zm-1.98.06c.18 0 .36 0 .54.12-.24.12-.42.06-.54-.12zm-.42 3.42h-.48v-.24h.48zm2.7.3v.24h-.6v-.24zm.12 2.16c-.18-.12-.24-.36-.3-.6.48.18.54.36.3.6zm4.38-.48l.3.12-.78.54-.12-.18c.6 0 .6-.12.6-.48zm-5.46.12h.42v.36h-.42zm4.26.48h.3v.36h-.3zm-5.34.18h.6c-.06.3-.3.42-.6 0zm6.42.3v.18h-.06c-.06-.12-.12-.18-.12-.24s.06-.12.06-.18l.12.12c0 .06.06.12 0 .12zm-3.9-.12h.84c-.18.12-.48.12-.84 0zm-.72.72h-.6v-.24h.6zm-3.18.36v-.3c.12-.12.36-.18.6-.18v.12c.06.12.12.24.12.36zm8.28-.24v.24h-.24v-.24zm-1.02.6H60v.18h-.42zm5.7 0h.12l-.12.18-.06-.06zm-12.96.54v-.36c.54.12.66.3.36.48zm.72-.06h.42v.24h-.42zm6.96.72c0-.06-.06-.12-.12-.18.06-.06.06-.12.06-.12s.06 0 .18-.06l.18-.18c0-.06.06-.06.12-.18 0 .3.06.54.12.72l-.42.06zm-1.8.48h-.42v-.12c0-.12.06-.24.12-.24.06.06.12.12.24.12 0 0 0 .06.06.06zm-5.46-.12l.3.42h-.6c0-.18.12-.3.3-.42zm15.72.18h-.12v-.18h.12zm-13.86.84h-.36v-.48h.36zm-2.64 0h-.48v-.42h.48zm9.24.54v.36c-.36 0-.54-.18-.54-.36zm1.44.78l-.18.06c-.06 0-.12 0-.18.06-.3-.06-.48-.18-.48-.42.18 0 .48.12.84.3zm-2.28 0l.36.06-.24.36-.3-.12zm1.08.18l-.72.18-.06-.18.66-.18zm5.46-.18l.24.06-.18.24-.24-.12zm-4.68.36l.48-.12.06.24-.48.06zm-11.58.48c0-.18.12-.3.48-.48l.12.36c-.12.06-.36.12-.6.12zm9.24-.06c-.12.06-.18.06-.18.06s-.06-.06-.24-.12c-.06 0-.06-.06-.12-.06s-.12 0-.18-.06c.24-.06.36-.12.42-.24.18.06.3.18.42.3zm-7.44.06l-.48.18v-.24l.36-.18zm-1.08.24c.18.06.36.06.6.12l.18.12c-.18-.06 0 0 .54.3h-1.2zm9.12 1.02c-.06 0-.06-.06-.06-.06-.06-.06-.06-.12 0-.18.18 0 .3.12.36.36-.12-.06-.24-.12-.3-.12zm6.3.12h.24c.06.18.06.24-.06.3-.12-.06-.18-.18-.24-.36zm-6.06.06c.12 0 .24.06.48.12l-.06.06h-.06c-.06.06-.12.12-.18.12h-.06c-.06.06-.12.06-.12.06zm2.34.12l.18-.06.12.42h-.3zm-10.62 0h.6v.3h-.6zm9.24.78l-.12.24-.3-.12.12-.18zm-8.52.48h-.36v-.42h.36zm7.38 0l.24.18c-.18.06-.3.06-.36.06-.18-.06-.06-.24.12-.24zm2.52.54h.06c.12.06.12.12.12.18s.06.12.12.18l.12-.06s.06 0 .12-.06h.12c.06 0 .18 0 .36-.06-.18.18-.36.24-.48.36s-.24.18-.36.24c-.06-.06-.18-.18-.24-.3-.12-.18-.24-.3-.24-.42h.12c.12 0 .12 0 .18-.06zm-2.04.12l.42-.06.12.18-.42.12zm-8.58.48c0 .06-.06.18-.12.3l-.36-.24c0-.06 0-.12.12-.18 0-.06.12-.06.36-.06zm12.24.12l.12.18-.48.12h-.54c-.06.12-.12.12-.18.18l-.12-.12c-.12 0-.18-.06-.24-.24.12 0 .18 0 .24-.06h.48c0 .06-.06.12-.06.12.06-.06.18-.06.18-.06h.12zm.54.18l.18.36-.24.12-.24-.36zm-4.62.3v-.24c.24 0 .42.06.54.24-.24.06-.42.06-.54 0zm-5.22.54h-.42v-.36h.42zm8.22.06v-.24l.48-.12c.24.06.36.18.36.3v.18c-.24.06-.54.06-.84-.12zm-1.86-.24h.24v.3h-.24zm1.02.54l-.24-.42.24.06c.36.12.36.06.48.24zm4.32.48c.18.12.18.3.06.36-.12 0-.24-.06-.42-.12zm-2.76.18l.36.84-.24.06-.36-.84zm-2.16.36h-.42v-.3h.42zm-.06.54c-.12-.06-.18-.06-.18-.06-.06 0-.12 0-.12-.06-.12 0-.24 0-.24-.12l.6-.18c-.12.18-.12.36-.06.42zm3.96.96a.967.967 0 0 1-.24-.42c-.18-.06-.3-.06-.36-.06-.18 0-.3-.06-.42-.06l.18-.12.12-.12c.18-.06.24-.06.3-.12.06 0 .18-.06.36-.12l.06.06c-.06 0-.06.06-.06.06v.3c.06.18.3.36.78.6-.36.12-.6.18-.72 0zm-2.22-.24l-.24-.54c.36.18.48.3.24.54zm.96.9c.24-.18.42-.24.42-.3.06-.06.06-.12 0-.18v-.12c-.06 0-.06-.06-.06-.06-.06-.12-.12-.24-.12-.36.12.06.24.12.3.12h.24l.18.42-.12.06-.12.12c-.12.12-.18.12-.18.12-.06.06-.24.12-.54.18zm-12.36-.48h-.36v-.42h.36zm10.74.72s-.06 0-.12-.06c.18-.12.42-.18.66-.24.24 0 .36-.06.42-.12.12 0 .36 0 .66-.12l-1.32.72s-.06-.06-.24-.12v-.06zm4.68-.54l.3.06-.78.6-.12-.24c.6 0 .6-.06.6-.42zm-15.3.48v-.42c.3 0 .48.06.6.12-.06.06-.24.18-.6.3zm14.64.72l-.06.36-.3-.06.06-.3zm-13.32.48h-.6v-.36h.6zm11.7.3s-.06-.12-.12-.12c0 0-.06 0-.12-.06l.36-.36.42.42zm.84-.18c.12.12.18.12.24.12l.06.06c-.06.06-.12.06-.24.06s-.18-.06-.06-.24zm.96.6a.662.662 0 0 0-.48 0l-.24.36h-.06v-.06l.24-.36h.06c.06 0 .18 0 .18-.06.12 0 .24.06.36.06zm.78 0c-.18.06-.24.18-.3.3l-.06-.06h.06c.06-.12.18-.24.3-.3l.06.06zM64.2-4.62c.12-.06.06 0-.24.18-.06.12-.24.18-.48.18a.29.29 0 0 0 0-.42c.12 0 .24-.06.24-.06h.12l.6-.12c-.12.18-.24.24-.24.24zm41.28-37.2l-24.66 1.14c-.72 0-1.08.36-1.2 1.08-.66 6.6-1.2 13.2-1.5 19.86-.3 6.42-.48 12.6-.54 18.48 0 .78.54 1.26 1.26 1.26l25.26-1.32c.78-.06 1.14-.48 1.14-1.2v-7.56c0-.66-.54-1.2-1.26-1.2l-16.02.48.3-4.98 13.14-1.74c.66-.12 1.02-.54 1.02-1.2v-6.24c0-.66-.6-1.2-1.26-1.2v5.88h-.24v-5.88l-12.36.66.42-4.98 16.5-1.74c.72-.06 1.08-.48 1.14-1.2l.18-7.14c0-.72-.54-1.26-1.32-1.26zm-17.1 1.14h.12v.18h-.12zm3.9.54c0 .06.06.12.12.12-.18 0-.24-.06-.12-.12zm1.14 1.02c-.06.06-.12.12-.12.24v-.24c0-.12-.12-.24-.36-.3-.12 0-.24.06-.3.06 0 .06-.06.18-.18.24.06-.06.12-.12.18-.24.12-.18.3-.24.54-.24.24 0 .36.12.36.24 0 .06 0 .12-.12.24zm9-.24h-.12v-.18h.12zm-17.04 0h1.26v.18h-1.26zm4.32.18h-.78l-.06.06h-.42c0-.06.12-.12.3-.18h.12v-.06h.84zm-1.98-.06h.18v.12h-.18zm9.96.36h-.48v-.24h.48zm-7.14 0c.18-.06.24-.06.12.06s-.24.18-.24.24c0-.24.06-.3.12-.3zm3.96.3h-.24v-.12h.24zm-9.12.96c0 .06-.06.06-.12.12s-.12.12-.12.18h-.24v-.12c-.06-.12-.06-.18-.06-.24zm6.78.78l-.12.12h-.06s0 .06-.12.06h-.72l-.12-.12c.12-.24.3-.42.48-.48h.12c.12 0 .12-.06.18-.06h.12c.06 0 .18-.06.24-.12l-.3.3v.06c0 .12.12.18.3.24zm2.04.06h.18l-.06.18-.06-.06h-.06zm-3.78.54c-.06.06-.12.06-.24 0 0-.12.18-.24.48-.36l.12.36zm2.52.48l.18-.36c.24.18.3.3.3.36zm2.22.12c0-.12.18-.24.48-.36l.12.12c.06.06.12.12.12.18zm-3.48.18c0 .06-.06.18-.12.18h-.06l-.18-.06-.3-.18c0-.24.12-.3.3-.3.12 0 .3.06.54.18zm2.52.3h-.3l-.12-.3c.12-.06.18-.06.24-.06s.12 0 .24-.06c.18.06.24.24.24.42-.12.06-.24.06-.3 0zm-12.66-.06l-.12-.06.12-.06h.06zm11.22.42h-.42s-.06-.06-.06-.12c0-.12.06-.18.12-.24l.06-.06h.06c.06 0 .06-.06.12-.06.24 0 .3.12.3.24 0 .18-.06.24-.18.24zm8.94-.12h-.12v-.3h.12zm-9.06 2.82h-.12v-.18h.12zm-4.86 0c0 .06 0 .12.06.12l-.06.06h-.12c0-.12.06-.18.12-.18zm-.36 2.94c.06-.06.12-.12.18-.12.06.18.06.24 0 .3l-.3-.06c0-.06.06-.06.12-.12zm.06 1.14v-.06l.3.06-.06.06zm.6 2.16h.3v.3h-.3zm.18 1.08v.42c-.06.06-.18.06-.24.06-.3 0-.48-.12-.48-.3 0-.12.06-.18.18-.24l.06-.06c.12 0 .18.06.24.06.06.06.18.06.24.06zm4.62.3v.06h-.06zm8.52.24l.36-.24c.12 0 .42.12.48.18v.48l-.24.3c-.06 0-.18-.06-.3-.06-.12-.06-.18-.06-.3-.06zm-8.16-.18l-.12.06v-.06zm-1.32.48c.18.12.12.36-.06.42l-.3-.24zm1.44.36l-.24-.12.12-.24h.24zm-3.78-.06c.24.18.24.3 0 .36zm-.72.66c0-.06.06-.06.06-.06l.12-.06c.06.06.18.12.36.12v.3h-.12l-.06.06c-.12 0-.24-.06-.3-.06l-.24-.24c.12-.06.18-.06.18-.06zm2.82-.06c.12.06.12.12.24.18l.18.12h-.42c-.06-.12-.12-.18-.12-.24 0 0 .06 0 .12-.06zm-4.08.24h.36v.18h-.18c-.24 0-.42 0-.54-.12-.12-.06-.18-.12-.18-.24.12 0 .48.12.54.18zm0 0h-.06zm3.9.54c.06-.12.06-.12.06-.24h.48v.24c0 .06 0 .12-.12.18h-.48s.06-.06.06-.18zm-4.32.54c0-.06.06-.06.12-.06h.06l.12.06c-.12.06-.18.06-.18.06-.06.12-.12.06-.12-.06zm-.72 1.14c-.06 0-.18 0-.36.06 0-.06.06-.24.18-.36h.3l.06.06c.06.06.12.12.24.12-.12.12-.24.12-.42.12zm.84.3c-.18.06-.36.06-.54.06-.12-.06-.24 0-.3.18-.06-.06-.12-.12-.18-.24l.18-.12s.54.12.84.12zm-2.58 0c.12 0 .18.06.24.06 0 0 .06.06.18.06-.12.06-.18.06-.18.18-.12 0-.18.06-.24.06l-.18-.12c0-.06.06-.18.18-.24zm16.32.12c.12.3.18.48.24.54l.12.42c0 .06-.06.12-.12.24-.06.06-.12.12-.24.3zM87.3-19.02l-.54.12c-.06-.12 0-.24.06-.42-.06-.06-.3-.12-.54-.24.12-.06.24-.12.48-.18.18-.12.3-.12.36-.12h.24c.12.06.12.06.24.06-.24.3-.42.54-.3.78zm-1.68-.3v-.06c.06 0 .06 0 .12-.06.06.06.06.06.12.06l.06.06c-.12.12-.18.12-.3 0zm2.58-.06l.18.18c-.18.06-.3.12-.42.12-.24 0-.36 0-.42-.3zm-2.46.18c.18.12.24.3.24.42-.06.06-.18.12-.36.12 0 0-.06-.12-.06-.24-.12-.06-.06-.18.18-.3zm2.7 1.08c-.78.3-.78.24-.9.24h-.36c-.06-.06-.18-.06-.3-.12.06-.06.18-.18.3-.24l.42-.18-.18-.18c-.06 0-.12-.06-.12-.12h.36c.12.06.18.18.18.36.06 0 .12-.06.12-.12s.06-.12.18-.12h.3zm-2.16-.24c.12 0 .18.06.24.06.06.06.12.12.24.18v.78l-.18.12h-.18c-.12 0-.3-.06-.54-.24v-.3c0-.18.12-.6.42-.6zm-.84.54c-.12.06-.24.06-.42 0 0-.06.24-.24.3-.24zm13.2-.06h.72v.18h-.72zm-10.5.36h-.36l.12-.18h.36c0 .12-.06.18-.12.18zm-3.3.06c.06.12.06.18 0 .24h-.3c0-.06.06-.18.3-.24zm2.76.36l.12-.24c.12.06.24.18.24.3-.12 0-.24 0-.36-.06zm-1.74 0h.3c0 .06.06.12.12.18l-.12.24-.54-.06c0-.06.06-.18.24-.36zm.66.6v-.24c0-.18.12-.24.3-.24l.06.36zm1.08.06c-.12 0-.24.06-.42.12l-.3-.24c.06 0 .12-.06.12-.06s.12-.06.24-.06c.24 0 .42 0 .54-.06l.12.12c.06 0 .12.06.12.12zm-.84.54v-.24l.48.12-.18.12zm-.12 0c-.12.12-.24.12-.36.12l-.12-.24c.24 0 .36.06.48.12zm-.72.36l.66.06c0 .06-.06.18-.12.18l-.66-.06c.06-.06.12-.12.12-.18zm-.6.42l-.3-.24.42-.06c0 .06.12.24.24.48-.18 0-.3-.06-.36-.18zm.72.54v-.24c0-.06 0-.12.06-.12l.18-.18c.06.06.06.12 0 .24-.06.06 0 .18.06.3zm1.5-.12v-.24h.3c0 .12-.12.24-.3.24zm-3.18-.18s.12 0 .3.06l-.06.06c-.06.06-.06.06-.06.18l-.36-.12c0-.06.06-.12.18-.18zm1.86.42v.24h-.18v-.24zm.3.12c.06 0 .12-.06.3-.06v.06c0 .06 0 .12.06.12l-.42.12c-.06-.06-.06-.06-.06-.12-.06 0-.06-.06-.06-.12zm.78.78h-.36v-.24h.36zm-3.42.12h.36c0 .18-.12.3-.3.36-.12-.12-.12-.24-.06-.36zm1.2.42v-.24h.12s.06 0 .06-.06h.12l.06.3c-.06.06-.12.06-.18.06s-.06 0-.12-.06zm-1.2.96l-.06-.24c.12-.06.24-.12.3-.12l.18.12c-.06.12-.12.12-.12.18-.06.06-.12.06-.3.06zm1.68 0l-.24-.06v-.06h.3zm-.9.6s.12-.24.3-.24c0 .12.06.18 0 .18v.18c-.12 0-.24-.06-.3-.12zm5.28 2.16h.48v.12h-.48zm2.4.18c.12 0 .24-.12.24-.18l.12.3s-.06.06-.06.12-.06.12-.12.18h-.3c0-.06-.06-.18-.18-.24.06 0 .12-.06.3-.18zm3.54.06l.06.06-.06.12h-.12zm-5.22.18h-.36V-9h.36zm2.82.12c.06.06.06.12.12.12s.06 0 .06.06l-.24.06zm-3.54.3h.12c0-.06.06-.06.12-.06.12.12.06.18-.12.24l-.12-.12zm2.1.18c0 .06 0 .12-.06.12 0 .06 0 .12-.06.12 0 0 0 .06-.06.06l-.12-.42c.12 0 .24.06.3.12zm1.14.12c.06.06.06.12.06.12-.06.06-.06.12-.06.18h-.3c0-.12.12-.24.3-.3zm-8.16.9l-.24.24c-.06.06-.12.06-.12.12v-.36zm.84 0h.36c-.06 0-.06 0-.06.06v.12c-.18 0-.3-.06-.3-.18zm3.18.18l.18.24h-.12l-.12-.24zm6.18.18s0 .06-.06.12l-.12.18c-.18 0-.3-.12-.3-.3zm-2.58.3h-.18l.06-.18h.12zm-1.92.18c-.06 0-.06.06-.06.06l-.12-.24h.12l.12.12s0 .06-.06.06zm-5.22.96h-.48v-.3h.48zm-5.52 1.02h-.6v-.36h.78c-.12.06-.18.18-.18.36zm21.96-.36l.6.18v.18l-.72-.12zm-18.06.36h-.66v-.24h.66zm4.44 0v.3h-.48v-.3zm2.82.24h.72l.3.3c0 .06 0 .18-.06.24-.06.12-.12.18-.12.24h-.84s-.06-.12-.06-.3 0-.36.06-.48zm-9.24.06h.66v.24h-.66zm2.64 1.5c0-.36-.06-.84-.24-1.26.12-.06.36-.18.48-.18.3.3.18 1.2-.24 1.44zm-6-.84h.72c-.12.12-.6.3-.72 0zm2.52.48h-.12v-.24h-.54v-.24h.54v.24h.12zm5.94.12c-.06.06-.3.3-.6.48 0-.12-.3-.42-.42-.48.12 0 .18-.06.3-.06.12-.06.24-.06.36-.12.18-.06.42-.06.66-.06-.06.06-.18.12-.3.24zm-3.78.3c0 .18-.06.3-.06.3-.18-.06-.48-.12-.84-.12v-.54h1.02c0 .06 0 .18-.12.36zm10.98-.18h.42v.12h-.42zm7.62.9h.24c-.12.12-.24.18-.36.18.06 0 .12-.06.12-.18zM82.5-1.5h-.48v-.24h.48zm61.32-34.02c0-1.86-.66-3.42-1.86-4.62-1.02-1.02-2.46-1.32-3.9-1.32h-2.58c-.24 0-.36.06-.48.12v.18c-.06.06-.06.12-.06.12 0 .18-.12.24-.3.3l-.18-.12-.06-.06c0 .12-.06.12-.06.24l-.36.72h.66c1.86 0 3.72-.06 5.52-.24l-.06.54c-2.34.12-4.38.18-6.3.18l-7.2 17.1-4.32-15v-.06c-.3-.84-.66-1.5-1.14-2.04-1.5 0-2.88-.06-4.14-.18l-.24-.12c-.12 0-.3.06-.42.06h-.24c-.12.06-.18.06-.24.12-.96.12-1.68.12-1.98.06-.48-.06-1.38-.18-3-.06l.12-.84c.24.36.36.48.36.54.06 0 .06 0 .12-.06 0-.06.06-.12.18-.18s.36 0 .66.18c.48-.48 1.02-.36 1.56-.24.36.06.66.12.84.12.24 0 .48-.12.72-.42 1.2.18 1.92.3 2.16.3.6.18 1.08.24 1.56.24s.96 0 1.44-.06c-1.02-.9-2.28-1.32-3.84-1.26h-.3l.18.18c-.06 0-.12 0-.18-.06s-.06-.12-.06-.12l-4.74.18c-.78.06-1.14.42-1.2 1.2l-.3 6.18c.12.3.06.6 0 .96l-.6 12.06-.96 19.44c0 .72.54 1.26 1.26 1.26l8.46-.18h-2.82c.12-.3.48-.42.66-.42.06 0 .18.06.36.12s.3.06.36.06h1.62c.18 0 .36 0 .48.06.3-.24.54-.6.54-1.02l.18-6.18h-.12v-.3c.06 0 .06-.06.12-.06l.18-6 .24.84 2.28 6.96c.72 2.52 3 3.36 5.1 2.22 1.38-.66 2.34-2.46 3-3.78 0-.06 0 0 3.18-6.6l-.78 12.84c-.06.6.54 1.26 1.2 1.26l8.7.18c.66 0 1.2-.54 1.2-1.2zm-25.38-5.4c.06 0 .12 0 .24-.12.12 0 .24.06.24.18 0 .06-.06.12-.12.24h-.36s-.06-.06-.06-.18c0-.06.06-.12.06-.12zm19.68 0h.06zm.18.24c.06-.06 0-.12-.06-.24.12.06.24.06.42.12.42.18 1.2.36 1.2.36zm-1.98.42l-.6.18s-.06 0-.06-.06c-.06 0-.12-.06-.18-.12.12-.3.72-.48.84-.24zm-19.2-.36h.06c0 .06 0 .06-.06 0zm-6.42 2.22l.18-.12.12.12zm-.06.96l.24-.36v.36zm11.46 4.5c0 .06 0 .18-.06.3h-.48c.12-.18.24-.3.3-.36s.18-.12.24-.24zm-1.62.54h.42v.12h-.42zm18.48.6h-.24c-.12-.12-.18-.24-.18-.36h.42c0 .12.06.12.18.18zm-1.74.12l.42.12v.36c-.24.12-.42.18-.6.18-.12 0-.24-.06-.3-.12.3-.06.48-.24.48-.54zm-16.08 1.8c-.06 0-.12 0-.24-.06l.06-.06v-.06c.06 0 .06 0 .06-.06.06 0 .12.06.42.24zm17.64.9c-.18.06-.3.06-.36-.06.06 0 .12 0 .18-.12l.12-.12c.24.06.36.18.36.3zM111-22.38l-.18-.36.18.18zm25.98.66l.18-.12c.18 0 .3.06.3.24h-.18c-.12.06-.18.06-.18.06v-.06zm-10.02.6c.12.12.12.18.12.18l.06.06c.06 0 .06.06.06.06l-.12.18h-.48c0-.12 0-.12-.06-.18s-.06-.18-.06-.3zm8.88 1.62h-.06c-.06 0-.12 0-.12.06l-.06-.06c-.06 0-.06-.06-.06-.12 0-.12.12-.24.3-.3zm-10.32.06l.6.06c0 .18-.06.3-.18.3l-.12-.06-.06-.18zM111-18.6h-.18v-.72h.18zm19.32.24c-.18 0-.36 0-.42-.06 0-.06-.06-.18-.12-.18.18-.24.36-.36.54-.36.3 0 .48.12.48.3 0 .06 0 .12-.06.12 0 0-.06 0-.06.06v.06c-.12 0-.24.06-.36.06zm-2.94.66c-.06 0-.24-.06-.48-.18l-.18-.12c.12-.06.24-.06.24-.06l.72-.18c.12.18.18.36.06.48h-.12c-.06.06-.12.06-.24.06zm-16.38.06h-.18v-.54h.18zm15.3.66h.3v.24h-.3zm4.74.3h-.54v-.18h.54zm-20.46.12c.12-.06.18-.12.18-.18v.48-.06c-.3-.06-.36-.18-.18-.24zm.18.36l.06 1.92c-.3-.18-.36-.48-.3-.84.06-.12.06-.24.06-.48 0-.12-.06-.24-.12-.36.18-.06.3-.18.3-.24zm15.9 1.32l-.18-.36c.24 0 .48 0 .6-.12.06.06.12.06.12.12l.18.18-.3.12h-.18zm2.52.24l-.3.18c-.18 0-.36-.18-.36-.36 0-.06.12-.18.3-.3h.36l.06.06h.06c.06.06.12.12.12.18 0 .12-.06.18-.24.24zm-1.08 1.38h-.24l-.18-.18c-.18.12.36-.3.54-.3.18 0 .42.18.6.48-.42 0-.66.06-.72 0zm2.22.12h-.12v.18c.06 0 .06.06.06.12-.06.12-.06.18-.06.3-.06.12-.12.18-.3.18-.24 0-.36-.06-.42-.18-.06-.06-.06-.18-.06-.3 0-.24.3-.66.66-.9.24.18.36.3.36.42 0 .06-.06.12-.12.18zm-19.5 11.7l-.6.78c-.06-.18-.06-.48-.12-.78 0-.12-.06-.36-.06-.66 0-.3.06-.48.12-.66.12-.54.18-1.08.18-1.56 0-.54-.06-.96-.12-1.38-.06-.42-.18-.84-.24-1.32-.06-.36-.12-.9-.18-1.56l-.12-2.46c0 .12.06.12.12.06s.18-.12.3-.24c.18-.18.36-.48.36-.78v-1.68l.54.12-.36 4.02-.18 3.6zm16.68-11.1c-.06.06-.12.06-.24.06l-.06-.06v-.24c.06 0 .42.12.42.24zm-.9.9v-.06c0-.06 0-.06.12-.06.06 0-.06.12-.12.12zm10.92 2.7c-.06.06-.12.12-.18.12-.18 0-.24-.06-.3-.12s-.12-.06-.12-.12c.06-.18.18-.3.36-.3.12 0 .18.06.24.12 0 0 .06 0 .18.12zm3.42 1.14c.12-.12.24-.18.3-.18s.12.06.12.18zm-13.68 1.08l-.18.12c-.12 0-.24-.06-.3-.12-.12-.06-.24-.12-.3-.18-.24-.06-.42-.18-.66-.3 0-.06.18-.24.3-.24s.18.06.3.12c.18.12.42.24.84.24zm1.32.3c-.06-.06-.36-.18-.48-.3 0-.12.06-.24.18-.3.06.06.18.12.24.24l.18.24zm-10.14-.06c0-.18.24-.24.42-.24.3 0 .3.12.3.24 0 .18-.06.3-.24.3-.36 0-.48-.12-.48-.3zm-1.98.6c0 .06-.06.12-.18.18-.18 0-.24-.06-.24-.18V-6c.06 0 .06-.06.06-.06h.3l.06.06zm10.62.96l-.18-.06c0-.12.06-.18.18-.18zm0 .84l-.12-.06v-.24h.12zm-11.7.12c-.06 0-.06 0-.06.06a.86.86 0 0 1-.6-.24c.06-.06.42-.18.48-.18.12 0 .18.12.18.24zm3.78 1.92c.06 0 .12 0 .18.06v.06h-.12c-.3 0-.42-.06-.36-.18s0-.24-.18-.42v-.12c0-.06.12-.12.3-.12 0 0 .06 0 .18.06 0 0 .12.06.18.06-.06.06-.18.18-.3.24v.24zm60.9.6l-4.5-25.14c-.54-2.88-1.32-6.12-1.44-6.6-.36-1.32-.78-2.82-1.26-4.14-.9-2.04-2.28-3.96-4.62-4.14-1.26-.12-2.46-.12-3.48.06-1.38.18-2.7.48-4.02.72-.42.12-.72.36-.9.72-1.92 4.5-3.84 9.06-5.64 13.62-1.32 3.36-2.58 6.78-3.66 10.26-1.44 4.68-2.88 9.48-4.14 14.16-.12.84.36 1.56 1.14 1.56l8.88.18c.6 0 1.02-.3 1.2-.9l1.32-5.52L168-8.4l.6 7.32c.06.72.48 1.08 1.2 1.08h9.06c.78 0 1.32-.66 1.2-1.44zm-19.02-37.8h.24v.36h-.24zm7.32 1.44h.18v.48h-.18zm-.48.96c0 .06.12.06.3.06 0 .24-.06.36-.12.48l-.18-.18zm-6.48.36c-.18.3-.3.54-.3.72v-.78s.06.06.12.06zm7.62.12c-.12.12-.18.18-.18.24h-.24c0-.12 0-.12-.06-.18v-.24l.66.06c-.06 0-.12.06-.18.12zm-.6-.12l.12.24v.12l-.12-.18zm1.26.66c.18 0 .36-.06.54-.12l-.12.18c0 .18.12.24.3.36-.12.06-.18.12-.24.12h-.78l-.12-.12c.12-.3.24-.42.42-.42zm-.18 1.62c.18 0 .36.06.54.18-.06.06-.06.06-.06.12s-.06.12-.12.18c-.12-.06-.18-.12-.3-.12s-.24-.06-.3-.12c0-.18.12-.24.24-.24zm-4.86.36h.06l-.06.18-.12-.06zm.84.48s.06-.06.24-.06c.06.06.12.18.12.36-.12 0-.18.06-.24 0h-.3l-.06-.3zm5.04 1.08c.18 0 .3.12.3.3 0 .06-.12.18-.24.24h-.36c-.06-.06-.12-.12-.12-.18 0-.12.06-.18.12-.18.12-.06.24-.06.3-.18zm-13.2 2.34c.06.3.06.66 0 .96-.12 0-.36-.54-.36-.66s.42-.42.36-.3zm4.14.78c0-.06 0-.12.06-.12l.3.12c-.06.12-.12.12-.24.06-.12 0-.12.06-.12.06zm-3.96.96v.72h-.24v-.66zm6.9.3c.06.06.12.12.12.18 0 0 .06.06.06.12l-.18.48c-.48.24-.66.18-.84-.36.24-.36.54-.48.84-.42zm6.78.06v.12h-.42v-.12zm.24 1.08h-.36l-.06-.12s0-.06.06-.18c.24 0 .36.12.36.3zm-9.36 9.6l2.94-9.66c.3 1.26.54 2.52.78 3.78.18.96.3 1.92.42 2.88l.36 2.88zm1.86-9.24l-.18.48-.12-.06.18-.48zm5.52.24l.12.12-.12.06-.18-.12zm-7.5 4.38c-.36.84-.96 2.7-.96 2.58l-.24.66c-.24.24-.36.42-.36.54-.18.24-.36.6-.42.96-.06.3-.18.66-.36 1.02-.06.06-.18.12-.18.18-.12.06-.18.06-.3 0-.06 0-.12-.18-.12-.42.06-.24.18-.48.3-.72.18-.3.3-.54.36-.84 0-.24.06-.42.12-.54.12-.42.12-.6.54-1.08.36-.42.42-.6.54-.96 0 0 .06-.3.24-.84.24-.78.48-1.44.42-1.32.06-.24.12-.36.18-.42.12-.06.18-.18.18-.24.06 0 .12-.18.24-.42.12-.3.18-.66.3-1.08.06 0 .18-.12.3-.24s.18-.18.3-.24l.3.12c-.36.72-.54 1.08-.6 1.26 0 .12-.06.3-.12.48s-.36.66-.66.84zm7.92-1.98V-24l.42.06c-.06 0-.06.06-.06.06v.12zm1.2.42v-.12l.36.12v.12zm-2.52.3h.3c0 .12-.24.18-.3 0zm3.42 1.86c0 .18-.06.24-.3.24zm-4.5.18s.12.06.24.06c.06.06.12.12.12.18h-.36zm2.52.84h-.06v.18h-.54c-.18-.18-.12-.3.06-.42h-.36c0-.18.06-.3.18-.36.42.06.66.24.72.6zm1.56-.48c0-.06.06-.12.12-.12h.12s.06.12.12.12c0 .12-.18.12-.36.12zm-.84 0c.24 0 .36 0 .36.06l-.12.18c-.12 0-.12-.06-.18-.12s-.06-.06-.06-.12zm.84.48h.48c.18 0 .36.12.48.24-.36.18-.66.24-.96.06zm-1.62 1.02c0-.18.12-.3.3-.36.06 0 .12 0 .18.06.06 0 .12.06.18.06v.3h-.36c-.06-.06-.18-.06-.3-.06zM168-19.2h-.48v-.12h.48zm4.8.12c-.18.12-.3.24-.36.36s-.24.18-.48.24c.24.24.42.36.6.36s.3.12.42.3c-.12 0-.18.06-.24.06h-.84c-.36-.6-.54-.84-.54-1.02 0-.18-.06-.06.66-.54h.6c.06 0 .12.06.18.24zm-14.4.36c0 .12-.06.3-.18.48-.12-.06-.18-.18-.18-.36 0-.12.06-.36.12-.54h.24zm11.7.12h-.12c-.06.06-.06.06-.12.06v.06l-.3-.24v-.24h.42l.06.12c0 .06.06.12.06.24zm.66.06c.06 0 .12.06.18.06 0 0-.06.36-.24.6l-.12-.72h.12c0 .06.06.06.06.06zm-1.44.3h.9c0 .12-.24.3-.42.3s-.36-.06-.42-.06c-.12 0-.24 0-.36.06l-.18-.3c.12 0 .3-.06.48 0zm-.54.9l-.12-.06.06-.18h.12zm.78.6c-.06 0-.06.06-.06.12l-.42-.12c.06-.06.06-.06.06-.12l.12-.12c.18 0 .3.06.36.06 0 .12 0 .12-.06.18zm-.96 0l.12-.12c.06.06 0 .12-.12.12zm3.3.66c-.06 0-.3-.12-.36-.12 0-.06 0-.06.06-.06.12 0 .18-.06.18-.06.12.12.18.18.18.24zm-1.08.84v-.36c-.12-.3-.24-.48-.42-.54-.06 0-.18-.06-.18-.12.3-.06.6.06.96.3 0 .12.06.24.12.36 0 .18.06.3.12.36zm-2.4-.36h-.18v-.24h.18zm5.1.36l.36.06v.06h-.36zm-3.72.12v.3h-.24v-.3zm-1.74.42h.18v.12h-.18zm-1.8.42h-.3v-.12h.3zm1.26.84l-.12-.12h-.24c.18-.12.3-.18.42-.18 0 .12 0 .24-.06.3zm1.98.12l.36-.36c0 .06.06.12.18.12.12.12.18.18.18.24 0 .12-.18.3-.42.48-.18 0-.48-.12-.6-.18.18-.12.24-.24.3-.3zm1.56 1.56v.12h-.3v-.12zm-.72.12v.48c-.24-.12-.36-.24-.36-.48zm2.46.24c.18 0 .24-.06.3-.24 0 .3 0 .48.06.54l.24.18c.06 0 .12 0 .18.12-.24.06-.36.12-.36.06-.06.06-.18.06-.36.06-.36 0-.54-.42-.54-.54zm-13.26.54h-.66v-.3h.66zm-1.92 1.2c-.06.06-.12.06-.18.06-.48 0-.78-.42-.78-.6 0-.12.12-.48.6-.48.12 0 .6.24.72.3 0 .12.06.24.12.36 0 0 0 .12.12.36zm10.8-.78h-.18v-.24h.18zm6.36-.18h.24v.12h-.24zm-5.88.18h.84v.18h-.6c0-.06-.06-.12-.24-.18zm-3.06.24l-.06-.12.18-.06.06.12zm10.14 8.04c-.18 0-.6-.48-.6-.66v-.12c.06-.06.06-.12.06-.18a.802.802 0 0 1-.42-.48c0-.24-.06-.42-.06-.54-.06-.06-.12-.06-.18-.18-.06 0-.12-.06-.12-.12-.12-.06-.12-.12-.18-.18l-.18-.18h.06v-.06h.06v-.84h-.36c-.12.06-.18.06-.3.06-.3 0-.54 0-.72-.06.66-.3-.42-.66-.66-.78v-.54c0-.06.06-.18.12-.24s.06-.12.06-.18 0-.06.06-.06.12-.06.12-.12c.06-.12-.18-.24-.36-.18.06-.06.06-.18.12-.42 0-.18.18-.3.54-.3.12 0 .24 0 .42-.12 0 0 0-.06-.12-.12a.828.828 0 0 0-.24-.18c-.12-.18-.12-.3 0-.42-.24-.18-.36-.24-.24-.18-.06-.06-.12-.12-.12-.18 0-.36.78-.66 1.14-.66.06 0 .72.18.9.3v.48l-.24-.18c-.36 0-.54.06-.54.3v.6l.18.12c.12-.06.24-.18.42-.3l.42-.36c.24.42.24.72.12.78-.12 0-.18.12-.18.24s.06.24.18.42c.3.48.3.9.12 1.26-.06.18.12.36.48.54-.24.18-.3.3-.3.42 0 .06.06.12.12.3.12.18.18.24.24.3.12.6.18 1.08.24 1.44.06.36.12.84.24 1.44-.12.12-.18.12-.3.12zm-22.62-7.2l-.18-.12v-.12c.24.06.3.12.18.24zm2.58.96c0 .06 0 .06-.06.06s-.12 0-.12-.06c0-.12.06-.24.12-.3.12.12.18.18.06.3zm15.96.6c-.06.12-.12.12-.12.18-.06-.06-.12-.06-.18-.18-.06 0-.06-.12-.06-.18h.42c0 .06 0 .18-.06.18zm-17.82.06c0-.06.06-.06.06-.06.06 0 .06 0 .12-.06.24 0 .36.06.36.18v.3l-.12.06-.42-.18zm15.42.18h-.42v-.24h.42zm.72.24c.24.06.36.06.36.24h-.36zm-15.96.96c-.06.06-.12.12-.18.12-.3 0-.54-.42-.54-.48.48 0 .78-.18.96-.54.06.06.12.12.24.18.06 0 .12.06.18.12v.24l-.42.12c-.12.12-.24.12-.24.24zm15.36 0l-.06-.42c.06.06.12.06.3.12l.36.18zm-12.96 1.2c-.12-.06-.24-.06-.24-.06-.06-.06-.12-.06-.24-.18.06 0 .12 0 .24-.06h.12c0-.06.06-.06.12-.06l.12.12c0 .12 0 .18-.12.24zm-2.88.36c-.18.06-.3.06-.36 0 0-.12.12-.24.3-.24.12 0 .36.24.42.24zm1.08.24l-.36-.24c0-.06.12-.12.36-.24.18.06.24.18.24.3-.06 0-.12.06-.24.18zm15.54-.18c.12-.06.24-.12.3-.18.12.12.24.24.24.36h-.66zm1.14 3c0 .06 0 .06-.06.12-.18-.12-.54-.54-.66-.78h.6c0 .18.06.36.18.6-.06 0-.06.06-.06.06zm42-39.9c-.3-.24-.54-.36-.9-.36h-8.1c-.78 0-1.14.36-1.2 1.14l-.84 14.34-5.58.24c.12 0 .24.06.3.06 0 0-.06.24-.24.24s-.3-.06-.3-.12l-.12-.18-2.34.06.96-14.34c.06-.66-.48-1.26-1.26-1.26l-7.68.18c-.78 0-1.14.42-1.2 1.14L182.4-1.32c0 .78.48 1.32 1.26 1.32l8.82-.18c.84 0 1.2-.42 1.2-1.2l.24-14.28c1.32-.48 2.7-.96 4.14-1.32.3-.06.6-.12.9-.12.24-.06.54-.12.84-.12l1.08-.18c.36-.06.72-.06 1.14-.12l-.66 12.6c.12.12.24.12.24.24-.12.06-.18.12-.24.12l-.06 1.68h.18v.18c0 .06-.12.12-.24.18v.72c0 .72.54 1.2 1.2 1.2h8.88c.84 0 1.2-.36 1.2-1.2 0-6 0-12.12.18-18.24.18-6.9.66-13.8 1.14-20.64.06-.36-.06-.66-.3-.96zm-19.92 2.52c-.06 0-.18 0-.24-.06l-.18-.12c-.96 0-1.62-.06-2.04-.06-.42 0-.6-.06-.66-.06-.06 0-.24.06-.42.06l-.42.12c-.36 0-.72-.12-1.02-.24.24-.06.36-.12.48-.06.12 0 .24-.12.42-.3h.48v.18c0 .06.06.06.18.06h.36c.18 0 .42 0 .6-.06h.36c.18 0 .42-.06.54-.06h.12s.9.12 1.14.12c.24.12.36.18.48.3zm-6.12.6c-.18 0-.3-.06-.36-.18v-.6c.06 0 .12-.06.18-.06.12 0 .24-.06.36-.06v.18s-.06.06-.06.12c0 .12.06.12.12.18s.18.06.18.18c-.24.12-.36.24-.42.24zm.54.84h.18v.3h-.18zm16.92.48c0 .06.06.06.12.12l-.3.24c-.06-.06-.24-.24-.24-.36zm3.06.3h.18v.24h-.18zm-1.14.9h.18v.12h-.18zm-.3 1.02h.12v.24h-.12zm-17.46.96l.12-.12h.06l-.06.18zm3.48 1.14h-.12l-.6-.24v-.36l.3-.18h.24c.06.06.06.12.06.24-.06.06-.06.18 0 .24.12.06.18.18.18.24zm12.6-.66h-.42v-.12h.42zm.36.66v.12h-.48v-.12zm2.76 3.42l.3.3c-.06 0-.18-.12-.36-.24-.12-.06-.24-.18-.24-.24zm-10.08 4.02c-.06.06-.06.12-.06.12.06.06-.06 0-.3-.12-.12-.06-.18-.12-.18-.18v-.12c.06.06.06 0 .12-.06.12 0 .3.06.48.24 0 0-.06.06-.06.12zm1.56 0l.12.12h-.12l-.12-.06zm-3.06.84c0-.06.06-.18.18-.24h.36c-.12.24-.3.3-.54.24zm1.86.06l.06-.06v-.06h.48l.06.06c0 .06.06.06.06.12l-.18.18c-.12 0-.24-.12-.48-.24zm-.66.9c-.06.06-.12.06-.12.12l-.18-.3c-.06-.3-.12-.3.12-.36.3-.12.42-.12.42-.12 0 .06 0 .06.06.06 0 .06.06.12.06.18 0 .12-.24.3-.36.42zm-.78-.42h-.3v-.12h.3zm4.74.42c-.06.12-.3.18-.78.24-.12-.06-.12-.12-.12-.3 0-.12.42-.36.48-.42.12.12.24.18.36.18s.24-.06.36-.18c0 .06.12.06.24.06-.36.18-.48.36-.54.42zm1.74-.18l-.18.18s-.06 0-.06-.06c0 0-.06 0-.06-.12zm-6.78.36l-.18-.18h.06c.06 0 .06-.06.12-.06 0 0 .06.06.06.12-.06 0-.06.06-.06.12zm3.72 1.56c-.18-.12-.42-.3-.72-.36-.3-.12-.42-.24-.48-.36l-.36-.06c0-.12.12-.24.3-.24l.06-.06h.06c.06-.06.12-.12.18-.12h.3v.06c.12 0 .42 0 .42-.36 0 .18.24.36.54.36 0 0 .06-.06.12-.06h.36c-.12.06-.36.42-.36.54-.06-.18-.18-.24-.3-.24-.18 0-.36.06-.54.18.12.12.24.18.36.18s.12 0 .12-.06h.12c.24 0 .42.12.6.36v.24zm1.98-1.38v.06l-.36-.12.12-.06zm-6.06.6c0-.06.06-.12.12-.12l.18.12zm6.3.12c.18 0 .3.06.36.18h-.48zm1.98.42c-.06-.06-.12-.06-.24-.12l.12-.3c.3 0 .42.06.54.06h.18c.06.06.12.06.18.06l.12.12c-.06.06-.12.06-.12.06-.06.06-.12.06-.18.06-.12.06-.24.06-.36.06zm-7.44.3h-.12v-.18h.12zm5.64.12v-.12h.3v.12zm-2.64.36h-.12v-.18h.12zm1.38.96c-.12.12-.18.18-.3.18l-.24-.06c-.06 0-.06-.06-.12-.06 0 0-.06 0-.06-.06l.06-.3c.18.06.36.12.48.12h.42c-.06 0-.12.06-.24.18zm.96.12c.12 0 0 0-.24-.12l.12-.18h.54v.3s-.06.06-.18.06zm3.72.3l.06-.06h.6c.06.12.12.18.18.18l-.18.18-.66-.06zm1.92 1.02c-.06 0-.06-.06-.06-.18s.06-.18.24-.18c0 .06.06.06.06.12 0 0 .06.06.12.06-.24.3-.24.24-.36.18zm-4.02-.18c-.06.06-.06.18-.18.24l-.12-.3c.12 0 .24 0 .3.06zm7.38 1.8c-.18.06-.42-.06-.42-.18v-1.08h.42zm-4.98.06l-.06.24h-.12l.06-.24zm-16.5.54h.3c.18 0 .3 0 .48-.06v.06l.06.06v.06c-.06 0-.18-.06-.36-.06s-.36-.06-.48-.06zm1.02.42v-.24h.12l.06-.06s.06-.06.12-.06c.12 0 .24 0 .3.06v.18c-.06.06-.24.12-.48.12zm-3.18.12l.96-.24s0 .06.12.12.12.12.12.24-.06.24-.24.36c-.12.06-.24.12-.3.18s-.12.06-.18.06c-.06-.06-.12-.24-.24-.36-.06-.12-.12-.24-.24-.36zm3.9.24h.06l.18.06-.12.06zm13.92 1.5l-.06.06h-.3l-.12-.36h.3s.06 0 .18.12c.06.06.12.12.12.18zm-13.5.48h-.3v-.18h.48zm14.04.84h.18c.06.06.12.18.12.24v.18h-.3zm-15.12.24c.12 0 .3.12.3.18-.24.12-.36.18-.42.24h-.3c.06-.12.18-.24.42-.42zm11.16.54c0-.12.12-.18.24-.24l.24.12v.06c0 .06 0 .06-.12.06zm4.68.36c.06-.18.18-.24.3-.24 0 .06-.12.24-.3.24zm-21.24 1.32h.12v.18h-.12zm5.58.96s0-.12-.06-.24c0-.06-.06-.12-.06-.18 0-.12.06-.18.06-.18.06 0 .06 0 .12-.06.24.06.3.18.3.3s-.12.24-.36.36zm10.86-.3c0-.06.12-.12.24-.18h.24v.18c-.06 0-.12 0-.18.06-.06 0-.18 0-.3-.06zm-16.32 0l-.12-.06.12-.06.12.06zm21.84.06h.06c0-.06 0-.06.06-.06l.06.06s0 .06.06.06v.06l-.24.12c0-.06 0-.06-.06-.12s-.06-.06.06-.12zm-.42 1.08c-.18 0-.24 0-.3.06V-9c-.06-.12-.06-.24-.06-.48.06 0 .12.06.18.12l.18.18zm-19.86-.18c-.06-.06-.12-.06-.24-.06-.06 0-.06-.06-.06-.18h.3c.06.06.12.06.12.06 0 .12 0 .18-.12.18zm3.84.12h-.12c-.06 0-.12 0-.12-.06.12-.06.12-.12.12-.18.06 0 .06.06.12.12s.06.12 0 .12zm18.48.54c-.12-.06-.24-.06-.42-.06h-.24c0 .06-.06.06-.18.06-.12-.12-.12-.24-.18-.36 0-.06-.06-.18-.12-.36.18 0 .3-.06.42 0h.18c-.06 0-.06.06-.06.06l-.06.06c-.06.06-.06.12-.06.18l.18.06h.06c0-.06.06-.06.06-.06.12-.06.18-.12.24-.12s.12.06.18.12c0 .06.06.06.12.12zm-20.34-.24c-.06 0-.18 0-.18-.06-.12 0-.18-.06-.24-.06.06-.24.18-.36.42-.36.12 0 .18.06.24.06 0 .06.06.06.12.06.12 0 .24 0 .24-.06.06-.06.12-.06.12-.06-.18.24-.54.48-.72.48zm18.3-.12c0-.12.12-.18.3-.24l.06.24v.12zm-.48.72l-.12.12h-.12c-.12 0-.18.06-.24.06-.06.06-.12.06-.18.06-.12 0-.18-.06-.24-.12-.06 0-.06-.12-.18-.24h.36c.12-.06.24 0 .3.06.06 0 .12-.12.18-.3l.24.18zm-15.54-.18l.12-.12.06.06s0 .06.06.06zm12.6.24l-.12-.06.12-.06.12.06zm-15.24.84h-.54c0-.06-.06-.06-.06-.06-.06 0-.06-.06-.06-.12 0-.12.12-.24.24-.3.12.06.24.06.36.06.12.06.24.12.24.24 0 .06-.06.12-.18.18zm18.9-.06c.06.06.18.12.24.12.12 0 .18 0 .3.12-.06 0-.06.06-.06.12-.06.06-.12.06-.24.06s-.3-.06-.48-.18zm-22.2.24h.12v.3h-.12zm7.2.3h-.3v-.12h.3zm12.48-.06c.06 0 .12.06.24.12 0 .06.06.12.18.18-.3 0-.42-.06-.42-.3zm.96 1.02c-.06-.18.12-.54.12-.6 0 .06 0 .18.06.24.06.18.06.3.12.36zm-4.32-.42l.06-.06h.06c.12 0 .24.06.24.12-.12.06-.18.06-.24.06h-.06v-.06zm-17.04.42c-.12.06-.18.06-.18.06-.3 0-.54-.06-.66-.24 0-.12.06-.18.18-.18.24 0 .42.06.66.12zm23.7.78c-.12.06-.18.18-.12.3-.06 0-.12 0-.12.06h-.12c-.06-.12-.12-.18-.06-.24 0-.06-.12-.06-.24-.06 0-.06.12-.18.36-.3l.18-.12c.06 0 .12-.06.18-.12l.12.24c0 .12-.06.18-.18.24zm-22.8.42c-.06.06-.06.12-.06.18-.06.12-.06.18-.06.3v-.66h.18c-.06.12-.06.12-.06.18zm17.88.06l-.12.12c-.06 0-.3 0-.18-.18zm4.08.84c-.06 0-.12 0-.18-.12 0-.06.06-.12.12-.12h.3c0 .06.06.12.12.12l-.18.18c-.12-.06-.18-.06-.18-.06zm1.5.24h-.12v-.3h.12zm-7.56.24c-.12 0-.24-.18 0-.3.12.06.24.06.24.06.12 0 .24.06.36.12zm.6.84c-.12-.12 0-.6.24-.72.18.06.3.12.36.12.12 0 .12-.06.24-.06.06-.06.12-.06.18-.06h.06v.12c-.18.18-.36.3-.54.36-.18 0-.36.12-.54.24zm4.92.24v-.18h.18c0 .06.06.06.18.12-.18.06-.3.06-.36.06zm1.56.24c-.12.06-.3.12-.6.18l-.06-.06c0-.06-.06-.12-.06-.12v-.18c0-.06.06-.06.06-.06 0-.06.06-.06.12-.06s.18 0 .24.06c.12.06.18.12.3.12zm-4.92.42h-.24c-.24 0-.54-.24-.54-.36 0-.06.06-.18.18-.3.24.24.54.36.84.36-.12.18-.18.3-.24.3zm24.9-8.76c3.78 0 4.62-2.22 5.04-4.68.06-.36.18-.78.18-1.32.06-.48.12-1.2.18-2.28.18-2.16.3-4.62.42-7.32v-.06l.72-14.28c.06-.78.42-1.14 1.2-1.14h7.38c.66 0 1.2.6 1.2 1.26l-.54 14.46v3.96c0 2.94-.24 6-.78 8.88-.6 2.88-1.74 5.7-3.66 7.92-3.3 3.72-8.04 4.86-12.84 4.74-2.7-.06-6.12-.48-8.16-2.4-2.04-1.86-2.88-4.68-3.18-7.38-.3-2.16-.24-4.5-.24-6.72.06-3.12.3-6.24.6-9.36l1.5-14.28c.06-.72.48-1.08 1.2-1.08h7.38c.66 0 1.26.66 1.2 1.32l-1.14 14.46-.54 7.92c-.36 3.84-.18 7.38 2.88 7.38zm14.94-28.8v-.24c0-.18.12-.84-.42-.84-.42 0-.48.78-.48.9v.36c.06.12.06.3.06.66v.72c.06.36.06.6.06.72h.66c-.06 0-.06 0-.06-.06s-.06-.06-.06-.06c0-.36.06-.72.18-1.32.06-.48.06-.78.06-.84zm-25.68 6.72l-.06 2.16c0 .06 0 .06.06.12.06 0 .12.06.12.12.06 0 .18-.06.3-.24.12-.24.18-.48.18-.72-.12.12-.18.12-.24.12 0-.06-.06-.06-.12-.06v-.12c.12-.06.3-.24.42-.42l.36-7.62h-.3c-.12 0-.18.06-.24.12 0 .06-.12.06-.3.06.3.18.3.24.42.66v.42c0 .18-.12.3-.24.42 0 0 .06.24 0 .3 0 .06-.06.12-.12.18l-.06.78c-.06.06-.12.12-.12.18s.06.12.06.18c.06.06.12.12.12.18-.06.3-.12.48-.18.66l-.12.42c0 .06.06.18.12.3s.12.24.12.3c0 .18.06.3.06.42.06.24.06.36.06.36 0 .06-.06.18-.12.36-.12.12-.18.24-.18.36zm.36 7.44v-.72c-.24.06-.36.06-.42.06-.12 0-.18.06-.24.06l-.06.24c.12.12.3.3.72.36zm18.96-.3c-.12 0-.24-.06-.36-.06v.18c0 .06.06.12.12.12 0 0 .06 0 .06-.06.06 0 .06-.12.18-.18zm-19.08 1.92c-.36.18-.66.36-.72.54.06.12.12.18.3.18.48 0 .42-.42.42-.72zm20.58 3.96h-.42l-.12.24h.48c.12-.06.12-.12.06-.24zm-1.14 1.8c-.06-.06-.12-.06-.24-.06h-.12c0 .06-.06.06-.12.06.12.06.18.12.18.18.06 0 .12 0 .18-.06zm-1.08 4.62v-.12l-.18.12v.12zm.78.84l.06-.24h-.18l-.06.24zm-3.96 1.68h-.42l-.12.24h.54c.06-.06.06-.12 0-.24zm-3.66.78c-.06 0-.12-.06-.24-.06-.18 0-.48-.06-1.02-.06-.12.12-.18.18-.18.24.18.48.48.36.78.36.36 0 .42 0 .66-.48zm1.8 0l-.18-.06-.06.18.12.06zm-.06 1.02h-.18l-.06 1.08h.06zm-4.2.84l.66-.06c-.12-.3-.42-.42-.48-.48-.12.12-.24.18-.24.3.06.12.06.12.06.24zm46.62-14.64l-1.56 1.62c2.52 2.16 3.78 4.32 3.78 8.52 0 4.44-2.58 9.24-6.84 10.92-2.28.96-4.92 1.2-7.38 1.2h-13.8c-.66 0-1.2-.54-1.2-1.32l3-37.14c.06-.66.42-1.02 1.08-1.08l11.52-1.32c2.22-.3 4.92-.48 7.2 0 3.12.72 5.28 2.34 6.6 4.74 1.44 2.64 1.14 6 .54 8.76v.06l-.06.06c-.54 1.98-1.56 3.6-2.88 4.98zm-1.62-14.46h.12l.12-.24h-.18zm-8.22.84V-36l-.42-.36c-.06.06-.18.12-.3.18s-.18.12-.24.18c.12 0 .24.06.36.12s.24.12.3.12h.18zm-.12 1.92c0-.06 0-.18-.12-.3-.06-.12-.06-.24 0-.3l.06-.12c.06-.06.06-.12.06-.18-.12.12-.24.24-.36.42-.06.18-.06.3-.06.3 0 .06 0 .12.06.18l.06.12c.06 0 .12 0 .18-.06.06 0 .12-.06.12-.06zm1.56.18v-.24h-.12v.24zm3.12.84h-.12l-.12.24.12.06zm-9.78 2.22l-.54 6.24c2.46-.48 4.38-1.02 5.88-1.92.72-.42 1.2-1.08 1.44-1.92.12-.6.42-2.16-.24-2.58-.42-.3-.9-.42-1.44-.42-1.02 0-2.58.24-3.6.42zm10.26 2.1c-.12.06-.18.12-.24.18s0 .12.12.12c.06-.06.12-.12.12-.3zm-11.04.54l-.24-.24c-.06 0-.06-.06-.12-.12l-.18.12h-.12v.12c-.06 0-.06 0-.06.06v.18c.12.06.12.12.12.12 0 .06.06.12.06.12h-.12c-.06 0-.12 0-.12.12h.06l.06.06h.18c.06.06 0 .18-.24.36.06.06.06.18.12.24 0 .12.06.18.18.18h.36c0-.06.06-.12.12-.24 0 0-.06 0-.06-.06l-.18-.18c-.06-.12-.12-.18-.12-.24.24-.12.36-.3.36-.48 0 0 0-.06-.06-.12zm16.44 1.92v-.18c-.12 0-.18-.06-.18-.06h-.12c-.18 0-.24.06-.24.18 0 .18.12.18.24.24 0-.06.06-.06.12-.06s.06 0 .18-.12zm-16.86.18l-.12.12c-.06 0-.06.06-.12.06l-.12.24h.66s0-.12-.06-.24c-.12-.06-.18-.06-.24-.18zm8.82.42l-.06-.12v-.18h-.54c0 .12 0 .3-.12.42h.72zm-1.56.12c.12-.12 0-.06-.24.12-.12 0-.24.06-.36.06.24.18.54.18.84 0-.18 0-.24-.06-.24-.18zm-7.2.18v-.06l-.06-.06h-.12l-.12-.06c-.06 0-.24 0-.48.06.18.24.3.36.48.42.18-.06.3-.12.36-.18v-.06c-.06 0-.06 0-.06-.06zm8.4.12v-.12c-.3 0-.48.18-.48.24.12.06.18.06.3.06h.24v-.12c-.06 0-.06-.06-.06-.06zm1.08 1.08l-.36-.78c-.06.12-.18.24-.36.36-.12.12-.18.24-.18.24l-.12.12.12.12c.06 0 .06.06.12.06.06.06.06.06.06.18.12-.06.24-.12.36-.12s.24-.06.36-.18zm-3.36-.66l-.48-.06v.18l.48.12zm-8.88.66v-.42s-.12-.06-.24-.18c-.36.12-.48.24-.48.36l.36.12.12.06c.12 0 .18 0 .24.06zm8.64-.36l-.12.06-.12.12c0 .06-.06.06-.06.12s.06.06.06.06.06.06.12.06h.12a.29.29 0 0 0 0-.42zm-9.6.18h-.24s-.06-.06-.24-.06l-.12.36c.12.06.24.06.3.06h.3zm2.76.3c-.06.06-.12.12-.12.18l.3.18c.06-.12.06-.18.06-.3v-.24c-.12.12-.24.12-.24.18zm14.94.12l.78.12.24-.24s-.06 0-.18-.06h-.24c-.18 0-.54.12-.6.18zm-.42 0l.06.18.12-.06-.06-.12zm-4.56.3h-.3v.36h.3zm-.96.36c0 .24-.06.36-.12.48h.54c0-.18-.12-.36-.42-.48zm6 .12v.12l.24-.12-.06-.06zm-8.28 2.1v-.42c-.12-.06-.18-.06-.3-.06-.18 0-.24.06-.24.24 0 .06.06.12.06.18.12.12.24.12.3.06zm4.32.12h-.36c0 .06 0 .06-.06.06v.24h.3zM264-16.26c0-.06 0-.18-.06-.24-.12-.06-.24-.06-.36-.06.06.18.18.3.42.3zm-5.76.9l-.24 6c2.7-.24 4.14-.9 5.46-1.92 1.26-.96 2.34-3.48.36-4.74-.78-.42-2.46-.06-3.24.12l-.06.06c-.84.18-1.62.36-2.28.48zm8.46-.54v-.3h-.12v.3zm-13.32.66c0-.06-.06-.12-.18-.24v.54a.33.33 0 0 0 .18-.3zm.12.78c0-.06 0-.06-.06-.06v-.12h-.06c-.24.06-.3.18-.18.3 0 .12-.06.24-.24.36v.18c.12 0 .18 0 .24.06 0-.06.06-.18 0-.24-.06-.18.06-.3.24-.42 0 0 .06 0 .06-.06zm-.12 1.32c0-.06-.06-.18-.06-.18-.06-.06-.12-.12-.12-.18h-.24c-.06.18-.06.42 0 .66v.72c.06 0 .18 0 .24.06l.12-.06s0-.06-.06-.06c-.06-.06-.12-.06-.18-.18.18-.18.3-.72.3-.78zm2.28-.3c-.12.06-.12.12-.12.18.06.06.06.12.06.18l.06.12c0-.12.06-.18 0-.24zm-2.46 2.4v-.24h-.24s0 .06.12.12c0 0 .06 0 .12.12zm.12 2.16c0-.3 0-.24-.36-.54.06-.12.12-.18.3-.18l-.06-1.02c-.06.06-.06.18-.06.24v.18c0 .06 0 .12-.18.24-.12 0-.24.06-.24.12 0 .54.06.96.12 1.26.12 0 .24.06.3.12-.06.06-.18.06-.18.06h-.18c0 .06-.06.12-.06.18l-.06.24c0 .06.06.12.18.18l.24.24.06-.06c0-.06 0-.06.06-.06 0-.06 0-.12-.12-.12-.06 0-.12-.06-.18-.12.06-.12.18-.12.3-.12 0-.18 0-.36.06-.48.06-.24.06-.3.06-.36zm10.14 0l-.06-.3c-.12.06-.18.12-.24.12l-.24.12.18.18c.12 0 .24 0 .36-.12zm-10.44 1.8h.18v-.36c-.12 0-.18-.06-.24-.06h-.18l-.06.06v.18s.24.12.3.18zm2.4 3.78h1.02v-4.2c-.12.12-.18.24-.24.36 0 .06-.06.18-.12.36 0 .54-.12.9-.24 1.14-.18.24-.18.54-.06.84-.06 0-.06 0-.06.06l-.06.06c0 .06 0 .12.06.24v.24c-.12.12-.36.6-.36.72v.12c.06 0 .06.06.06.06zm-2.64-3.06v.24h.12v-.24zm0 .6v.18h.12v-.18zm.06 1.26v-.24h-.42v.24c.12.06.24.06.42 0zm2.28.78H255c0-.06 0-.06-.06-.06-.18.48-.24.6-.36.6-.06 0-.12.12-.12.36 0 .18 0 .3.06.36h.06s.06 0 .12-.06c.18-.18.24-.36.24-.48s0-.18-.06-.24c0-.12.24-.36.24-.48z" transform="translate(133.481 312.026)"/></svg>